%
M48
M72
T01C0.0320
T02C0.0354
T03C0.0400
%
T01
X2150Y3900
X1650Y4650
X2650Y4650
X6650Y4650
X7650Y4650
X7150Y3900
X8150Y8650
X8150Y9650
X1650Y9650
X1650Y8650
T02
X1650Y6150
X4650Y6150
X6150Y6150
X9150Y6150
T03
X1150Y1150
X2150Y1150
X3150Y1150
X4150Y1150
X5150Y1150
X6150Y1150
X7150Y1150
X8150Y1150
X9150Y1150
X10150Y1150
X11150Y1150
X12150Y1150
X13150Y1150
X13150Y2150
X12150Y2150
X11150Y2150
X10150Y2150
X9150Y2150
X8150Y2150
X7150Y2150
X6150Y2150
X5150Y2150
X4150Y2150
X3150Y2150
X2150Y2150
X1150Y2150
X4100Y9650
X5200Y9650
X10600Y9650
X11700Y9650
X14650Y8650
X15650Y8750
X16650Y8650
X15650Y6250
X14650Y6150
X16650Y6150
X15650Y3750
X14650Y3650
X16650Y3650
M30
