G75*
G70*
%OFA0B0*%
%FSLAX24Y24*%
%IPPOS*%
%LPD*%
%AMOC8*
5,1,8,0,0,1.08239X$1,22.5*
%
%ADD10C,0.0000*%
%ADD11C,0.0030*%
%ADD12C,0.0080*%
%ADD13C,0.0010*%
%ADD14C,0.0060*%
%ADD15C,0.0040*%
D10*
X000150Y000150D02*
X000150Y010646D01*
X017520Y010646D01*
X017520Y000150D01*
X000150Y000150D01*
D11*
X002365Y005965D02*
X002558Y005965D01*
X002462Y005965D02*
X002462Y006255D01*
X002365Y006158D01*
X002660Y006255D02*
X002853Y005965D01*
X002853Y006255D01*
X002954Y006110D02*
X003148Y006110D01*
X003249Y006158D02*
X003346Y006255D01*
X003346Y005965D01*
X003442Y005965D02*
X003249Y005965D01*
X003099Y005965D02*
X003099Y006255D01*
X002954Y006110D01*
X002660Y005965D02*
X002660Y006255D01*
X003544Y006110D02*
X003737Y006110D01*
X003838Y006062D02*
X003838Y006013D01*
X003887Y005965D01*
X003983Y005965D01*
X004032Y006013D01*
X004032Y006062D01*
X003983Y006110D01*
X003887Y006110D01*
X003838Y006158D01*
X003838Y006207D01*
X003887Y006255D01*
X003983Y006255D01*
X004032Y006207D01*
X004032Y006158D01*
X003983Y006110D01*
X003887Y006110D02*
X003838Y006062D01*
X003689Y005965D02*
X003689Y006255D01*
X003544Y006110D01*
X002455Y007665D02*
X002270Y007788D01*
X002455Y007912D01*
X002270Y008035D02*
X002270Y007665D01*
X002149Y007665D02*
X001963Y007665D01*
X001902Y007727D01*
X001902Y007850D01*
X001963Y007912D01*
X002149Y007912D01*
X001780Y007850D02*
X001780Y007665D01*
X001595Y007665D01*
X001533Y007727D01*
X001595Y007788D01*
X001780Y007788D01*
X001780Y007850D02*
X001718Y007912D01*
X001595Y007912D01*
X001412Y007912D02*
X001350Y007850D01*
X001165Y007850D01*
X001350Y007850D02*
X001412Y007788D01*
X001412Y007727D01*
X001350Y007665D01*
X001165Y007665D01*
X001165Y008035D01*
X001350Y008035D01*
X001412Y007974D01*
X001412Y007912D01*
X006865Y006158D02*
X006962Y006255D01*
X006962Y005965D01*
X007058Y005965D02*
X006865Y005965D01*
X007160Y005965D02*
X007160Y006255D01*
X007353Y005965D01*
X007353Y006255D01*
X007454Y006110D02*
X007648Y006110D01*
X007749Y006158D02*
X007846Y006255D01*
X007846Y005965D01*
X007942Y005965D02*
X007749Y005965D01*
X007599Y005965D02*
X007599Y006255D01*
X007454Y006110D01*
X008044Y006110D02*
X008237Y006110D01*
X008338Y006062D02*
X008387Y006110D01*
X008483Y006110D01*
X008532Y006062D01*
X008532Y006013D01*
X008483Y005965D01*
X008387Y005965D01*
X008338Y006013D01*
X008338Y006062D01*
X008387Y006110D02*
X008338Y006158D01*
X008338Y006207D01*
X008387Y006255D01*
X008483Y006255D01*
X008532Y006207D01*
X008532Y006158D01*
X008483Y006110D01*
X008189Y005965D02*
X008189Y006255D01*
X008044Y006110D01*
X008033Y007665D02*
X008033Y007912D01*
X008033Y007788D02*
X008157Y007912D01*
X008218Y007912D01*
X008340Y007850D02*
X008340Y007727D01*
X008402Y007665D01*
X008525Y007665D01*
X008587Y007727D01*
X008587Y007850D01*
X008525Y007912D01*
X008402Y007912D01*
X008340Y007850D01*
X008709Y007912D02*
X008709Y007665D01*
X008955Y007665D02*
X008955Y007850D01*
X008894Y007912D01*
X008709Y007912D01*
X009077Y007912D02*
X009200Y007912D01*
X009139Y007974D02*
X009139Y007727D01*
X009200Y007665D01*
X007912Y008035D02*
X007665Y008035D01*
X007665Y007665D01*
X007665Y007850D02*
X007788Y007850D01*
D12*
X007400Y008150D02*
X008900Y008150D01*
X010150Y009260D02*
X010260Y009150D01*
X010150Y009260D02*
X010150Y009650D01*
X010150Y010040D01*
X010260Y010150D01*
X010250Y009650D02*
X010150Y009650D01*
X011000Y009650D02*
X011300Y009650D01*
X012050Y009650D02*
X012150Y009650D01*
X012150Y010040D01*
X012040Y010150D01*
X012150Y009650D02*
X012150Y009260D01*
X012040Y009150D01*
X014150Y009090D02*
X014150Y008700D01*
X014150Y008310D01*
X014260Y008200D01*
X014250Y008700D02*
X014150Y008700D01*
X014150Y009090D02*
X014260Y009200D01*
X015050Y008700D02*
X015250Y008700D01*
X016050Y008700D02*
X016250Y008700D01*
X017050Y008700D02*
X017150Y008700D01*
X017150Y009090D01*
X017040Y009200D01*
X017150Y008700D02*
X017150Y008310D01*
X017040Y008200D01*
X017040Y006700D02*
X017150Y006590D01*
X017150Y006200D01*
X017150Y005810D01*
X017040Y005700D01*
X017050Y006200D02*
X017150Y006200D01*
X016250Y006200D02*
X016050Y006200D01*
X015250Y006200D02*
X015050Y006200D01*
X014250Y006200D02*
X014150Y006200D01*
X014150Y005810D01*
X014260Y005700D01*
X014150Y006200D02*
X014150Y006590D01*
X014260Y006700D01*
X014260Y004200D02*
X014150Y004090D01*
X014150Y003700D01*
X014150Y003310D01*
X014260Y003200D01*
X014250Y003700D02*
X014150Y003700D01*
X015050Y003700D02*
X015250Y003700D01*
X016050Y003700D02*
X016250Y003700D01*
X017050Y003700D02*
X017150Y003700D01*
X017150Y004090D01*
X017040Y004200D01*
X017150Y003700D02*
X017150Y003310D01*
X017040Y003200D01*
X013650Y002400D02*
X013650Y001900D01*
X013400Y001650D01*
X013650Y001400D01*
X013650Y000900D01*
X013400Y000650D01*
X012900Y000650D01*
X012650Y000900D01*
X012650Y002400D01*
X012400Y002650D01*
X011900Y002650D01*
X011650Y002400D01*
X011650Y000900D01*
X011900Y000650D01*
X012400Y000650D01*
X012650Y000900D01*
X011650Y000900D02*
X011400Y000650D01*
X010900Y000650D01*
X010650Y000900D01*
X010650Y002400D01*
X010400Y002650D01*
X009900Y002650D01*
X009650Y002400D01*
X009650Y000900D01*
X009400Y000650D01*
X008900Y000650D01*
X008650Y000900D01*
X008650Y002400D01*
X008900Y002650D01*
X009400Y002650D01*
X009650Y002400D01*
X010650Y002400D02*
X010900Y002650D01*
X011400Y002650D01*
X011650Y002400D01*
X012650Y002400D02*
X012900Y002650D01*
X013400Y002650D01*
X013650Y002400D01*
X010650Y000900D02*
X010400Y000650D01*
X009900Y000650D01*
X009650Y000900D01*
X008650Y000900D02*
X008400Y000650D01*
X007900Y000650D01*
X007650Y000900D01*
X007650Y002400D01*
X007400Y002650D01*
X006900Y002650D01*
X006650Y002400D01*
X006650Y000900D01*
X006400Y000650D01*
X005900Y000650D01*
X005650Y000900D01*
X005650Y002400D01*
X005400Y002650D01*
X004900Y002650D01*
X004650Y002400D01*
X004650Y000900D01*
X004900Y000650D01*
X005400Y000650D01*
X005650Y000900D01*
X004650Y000900D02*
X004400Y000650D01*
X003900Y000650D01*
X003650Y000900D01*
X003650Y002400D01*
X003400Y002650D01*
X002900Y002650D01*
X002650Y002400D01*
X002650Y000900D01*
X002400Y000650D01*
X001900Y000650D01*
X001650Y000900D01*
X001650Y002400D01*
X001900Y002650D01*
X002400Y002650D01*
X002650Y002400D01*
X001650Y002400D02*
X001400Y002650D01*
X000900Y002650D01*
X000650Y002400D01*
X000650Y001900D01*
X000900Y001650D01*
X000650Y001400D01*
X000650Y000900D01*
X000900Y000650D01*
X001400Y000650D01*
X001650Y000900D01*
X002650Y000900D02*
X002900Y000650D01*
X003400Y000650D01*
X003650Y000900D01*
X003650Y002400D02*
X003900Y002650D01*
X004400Y002650D01*
X004650Y002400D01*
X005650Y002400D02*
X005900Y002650D01*
X006400Y002650D01*
X006650Y002400D01*
X007650Y002400D02*
X007900Y002650D01*
X008400Y002650D01*
X008650Y002400D01*
X007650Y000900D02*
X007400Y000650D01*
X006900Y000650D01*
X006650Y000900D01*
X007460Y003647D02*
X007520Y003667D01*
X007579Y003691D01*
X007636Y003719D01*
X007691Y003750D01*
X007745Y003785D01*
X007796Y003822D01*
X007845Y003863D01*
X007891Y003907D01*
X007935Y003953D01*
X007976Y004002D01*
X008014Y004053D01*
X008048Y004106D01*
X008079Y004162D01*
X008107Y004219D01*
X008132Y004278D01*
X008152Y004338D01*
X008170Y004399D01*
X008183Y004461D01*
X008192Y004524D01*
X008198Y004587D01*
X008200Y004651D01*
X008198Y004715D01*
X008192Y004778D01*
X008183Y004841D01*
X008169Y004903D01*
X008152Y004964D01*
X008131Y005024D01*
X008107Y005083D01*
X008079Y005140D01*
X008047Y005196D01*
X008012Y005249D01*
X007975Y005300D01*
X006325Y005300D01*
X006650Y005850D02*
X006650Y006150D01*
X006550Y006150D01*
X006650Y006150D02*
X006650Y006450D01*
X008650Y006450D01*
X008650Y006150D01*
X008750Y006150D01*
X008650Y006150D02*
X008650Y005850D01*
X006650Y005850D01*
X008400Y005900D02*
X008400Y006400D01*
X008195Y004750D02*
X008037Y004750D01*
X007263Y004750D02*
X007037Y004750D01*
X006325Y005300D02*
X006288Y005249D01*
X006253Y005196D01*
X006221Y005140D01*
X006193Y005083D01*
X006169Y005024D01*
X006148Y004964D01*
X006131Y004903D01*
X006117Y004841D01*
X006108Y004778D01*
X006102Y004715D01*
X006100Y004651D01*
X006102Y004587D01*
X006108Y004524D01*
X006117Y004461D01*
X006130Y004399D01*
X006148Y004338D01*
X006168Y004278D01*
X006193Y004219D01*
X006220Y004162D01*
X006252Y004106D01*
X006286Y004053D01*
X006324Y004002D01*
X006365Y003953D01*
X006409Y003907D01*
X006455Y003863D01*
X006504Y003822D01*
X006555Y003785D01*
X006609Y003750D01*
X006664Y003719D01*
X006721Y003691D01*
X006780Y003667D01*
X006840Y003647D01*
X006263Y004750D02*
X006105Y004750D01*
X004150Y005850D02*
X002150Y005850D01*
X002150Y006150D01*
X002050Y006150D01*
X002150Y006150D02*
X002150Y006450D01*
X004150Y006450D01*
X004150Y006150D01*
X004250Y006150D01*
X004150Y006150D02*
X004150Y005850D01*
X003900Y005900D02*
X003900Y006400D01*
X002975Y005300D02*
X001325Y005300D01*
X001263Y004750D02*
X001105Y004750D01*
X002037Y004750D02*
X002263Y004750D01*
X001325Y005300D02*
X001288Y005249D01*
X001253Y005196D01*
X001221Y005140D01*
X001193Y005083D01*
X001169Y005024D01*
X001148Y004964D01*
X001131Y004903D01*
X001117Y004841D01*
X001108Y004778D01*
X001102Y004715D01*
X001100Y004651D01*
X001102Y004587D01*
X001108Y004524D01*
X001117Y004461D01*
X001130Y004399D01*
X001148Y004338D01*
X001168Y004278D01*
X001193Y004219D01*
X001220Y004162D01*
X001252Y004106D01*
X001286Y004053D01*
X001324Y004002D01*
X001365Y003953D01*
X001409Y003907D01*
X001455Y003863D01*
X001504Y003822D01*
X001555Y003785D01*
X001609Y003750D01*
X001664Y003719D01*
X001721Y003691D01*
X001780Y003667D01*
X001840Y003647D01*
X002460Y003647D02*
X002520Y003667D01*
X002579Y003691D01*
X002636Y003719D01*
X002691Y003750D01*
X002745Y003785D01*
X002796Y003822D01*
X002845Y003863D01*
X002891Y003907D01*
X002935Y003953D01*
X002976Y004002D01*
X003014Y004053D01*
X003048Y004106D01*
X003079Y004162D01*
X003107Y004219D01*
X003132Y004278D01*
X003152Y004338D01*
X003170Y004399D01*
X003183Y004461D01*
X003192Y004524D01*
X003198Y004587D01*
X003200Y004651D01*
X003198Y004715D01*
X003192Y004778D01*
X003183Y004841D01*
X003169Y004903D01*
X003152Y004964D01*
X003131Y005024D01*
X003107Y005083D01*
X003079Y005140D01*
X003047Y005196D01*
X003012Y005249D01*
X002975Y005300D01*
X003037Y004750D02*
X003195Y004750D01*
X002400Y008150D02*
X000900Y008150D01*
X003650Y009260D02*
X003760Y009150D01*
X003650Y009260D02*
X003650Y009650D01*
X003650Y010040D01*
X003760Y010150D01*
X003750Y009650D02*
X003650Y009650D01*
X004500Y009650D02*
X004800Y009650D01*
X005550Y009650D02*
X005650Y009650D01*
X005650Y010040D01*
X005540Y010150D01*
X005650Y009650D02*
X005650Y009260D01*
X005540Y009150D01*
D13*
X008930Y008118D02*
X008876Y008190D01*
X008877Y008189D02*
X008930Y008232D01*
X008981Y008277D01*
X009029Y008326D01*
X009074Y008377D01*
X009117Y008431D01*
X009156Y008487D01*
X009192Y008545D01*
X009225Y008605D01*
X009254Y008666D01*
X009279Y008730D01*
X009301Y008794D01*
X009320Y008860D01*
X009334Y008927D01*
X009345Y008994D01*
X009352Y009062D01*
X009355Y009130D01*
X009354Y009199D01*
X009349Y009267D01*
X009341Y009335D01*
X009328Y009402D01*
X009312Y009468D01*
X009292Y009533D01*
X009269Y009598D01*
X009242Y009660D01*
X009211Y009721D01*
X009177Y009780D01*
X009140Y009838D01*
X009099Y009893D01*
X009055Y009945D01*
X009009Y009995D01*
X008960Y010042D01*
X008908Y010087D01*
X008854Y010128D01*
X008797Y010167D01*
X008738Y010202D01*
X008678Y010233D01*
X008616Y010261D01*
X008552Y010286D01*
X008487Y010307D01*
X008421Y010324D01*
X008354Y010338D01*
X008286Y010347D01*
X008218Y010353D01*
X008150Y010355D01*
X008082Y010353D01*
X008014Y010347D01*
X007946Y010338D01*
X007879Y010324D01*
X007813Y010307D01*
X007748Y010286D01*
X007684Y010261D01*
X007622Y010233D01*
X007562Y010202D01*
X007503Y010167D01*
X007446Y010128D01*
X007392Y010087D01*
X007340Y010042D01*
X007291Y009995D01*
X007245Y009945D01*
X007201Y009893D01*
X007160Y009838D01*
X007123Y009780D01*
X007089Y009721D01*
X007058Y009660D01*
X007031Y009598D01*
X007008Y009533D01*
X006988Y009468D01*
X006972Y009402D01*
X006959Y009335D01*
X006951Y009267D01*
X006946Y009199D01*
X006945Y009130D01*
X006948Y009062D01*
X006955Y008994D01*
X006966Y008927D01*
X006980Y008860D01*
X006999Y008794D01*
X007021Y008730D01*
X007046Y008666D01*
X007075Y008605D01*
X007108Y008545D01*
X007144Y008487D01*
X007183Y008431D01*
X007226Y008377D01*
X007271Y008326D01*
X007319Y008277D01*
X007370Y008232D01*
X007423Y008189D01*
X007370Y008118D01*
X007369Y008117D01*
X007314Y008161D01*
X007261Y008209D01*
X007210Y008259D01*
X007163Y008312D01*
X007119Y008367D01*
X007077Y008425D01*
X007039Y008485D01*
X007004Y008546D01*
X006973Y008610D01*
X006945Y008675D01*
X006921Y008742D01*
X006900Y008810D01*
X006884Y008879D01*
X006871Y008949D01*
X006862Y009019D01*
X006856Y009090D01*
X006855Y009161D01*
X006858Y009232D01*
X006864Y009303D01*
X006874Y009373D01*
X006888Y009442D01*
X006906Y009511D01*
X006928Y009579D01*
X006953Y009645D01*
X006982Y009710D01*
X007015Y009773D01*
X007051Y009834D01*
X007090Y009893D01*
X007132Y009950D01*
X007177Y010005D01*
X007226Y010057D01*
X007277Y010106D01*
X007330Y010153D01*
X007387Y010196D01*
X007445Y010236D01*
X007506Y010273D01*
X007568Y010307D01*
X007632Y010337D01*
X007698Y010364D01*
X007765Y010387D01*
X007834Y010406D01*
X007903Y010421D01*
X007973Y010433D01*
X008044Y010441D01*
X008115Y010445D01*
X008185Y010445D01*
X008256Y010441D01*
X008327Y010433D01*
X008397Y010421D01*
X008466Y010406D01*
X008535Y010387D01*
X008602Y010364D01*
X008668Y010337D01*
X008732Y010307D01*
X008794Y010273D01*
X008855Y010236D01*
X008913Y010196D01*
X008970Y010153D01*
X009023Y010106D01*
X009074Y010057D01*
X009123Y010005D01*
X009168Y009950D01*
X009210Y009893D01*
X009249Y009834D01*
X009285Y009773D01*
X009318Y009710D01*
X009347Y009645D01*
X009372Y009579D01*
X009394Y009511D01*
X009412Y009442D01*
X009426Y009373D01*
X009436Y009303D01*
X009442Y009232D01*
X009445Y009161D01*
X009444Y009090D01*
X009438Y009019D01*
X009429Y008949D01*
X009416Y008879D01*
X009400Y008810D01*
X009379Y008742D01*
X009355Y008675D01*
X009327Y008610D01*
X009296Y008546D01*
X009261Y008485D01*
X009223Y008425D01*
X009181Y008367D01*
X009137Y008312D01*
X009090Y008259D01*
X009039Y008209D01*
X008986Y008161D01*
X008931Y008117D01*
X008926Y008124D01*
X008981Y008169D01*
X009034Y008216D01*
X009085Y008267D01*
X009132Y008320D01*
X009177Y008376D01*
X009218Y008434D01*
X009256Y008494D01*
X009291Y008556D01*
X009322Y008620D01*
X009349Y008686D01*
X009373Y008753D01*
X009393Y008822D01*
X009410Y008891D01*
X009422Y008961D01*
X009431Y009032D01*
X009435Y009103D01*
X009436Y009174D01*
X009432Y009245D01*
X009425Y009316D01*
X009414Y009387D01*
X009399Y009456D01*
X009380Y009525D01*
X009357Y009593D01*
X009331Y009659D01*
X009301Y009724D01*
X009267Y009786D01*
X009231Y009847D01*
X009190Y009906D01*
X009147Y009963D01*
X009100Y010017D01*
X009051Y010068D01*
X008998Y010116D01*
X008944Y010162D01*
X008886Y010204D01*
X008827Y010243D01*
X008765Y010279D01*
X008702Y010312D01*
X008637Y010340D01*
X008570Y010366D01*
X008502Y010387D01*
X008433Y010405D01*
X008363Y010418D01*
X008292Y010428D01*
X008221Y010434D01*
X008150Y010436D01*
X008079Y010434D01*
X008008Y010428D01*
X007937Y010418D01*
X007867Y010405D01*
X007798Y010387D01*
X007730Y010366D01*
X007663Y010340D01*
X007598Y010312D01*
X007535Y010279D01*
X007473Y010243D01*
X007414Y010204D01*
X007356Y010162D01*
X007302Y010116D01*
X007249Y010068D01*
X007200Y010017D01*
X007153Y009963D01*
X007110Y009906D01*
X007069Y009847D01*
X007033Y009786D01*
X006999Y009724D01*
X006969Y009659D01*
X006943Y009593D01*
X006920Y009525D01*
X006901Y009456D01*
X006886Y009387D01*
X006875Y009316D01*
X006868Y009245D01*
X006864Y009174D01*
X006865Y009103D01*
X006869Y009032D01*
X006878Y008961D01*
X006890Y008891D01*
X006907Y008822D01*
X006927Y008753D01*
X006951Y008686D01*
X006978Y008620D01*
X007009Y008556D01*
X007044Y008494D01*
X007082Y008434D01*
X007123Y008376D01*
X007168Y008320D01*
X007215Y008267D01*
X007266Y008216D01*
X007319Y008169D01*
X007374Y008124D01*
X007380Y008131D01*
X007325Y008176D01*
X007272Y008223D01*
X007222Y008273D01*
X007175Y008326D01*
X007131Y008381D01*
X007089Y008439D01*
X007052Y008498D01*
X007017Y008560D01*
X006986Y008624D01*
X006959Y008689D01*
X006935Y008756D01*
X006915Y008824D01*
X006899Y008893D01*
X006887Y008962D01*
X006878Y009033D01*
X006874Y009103D01*
X006873Y009174D01*
X006877Y009245D01*
X006884Y009315D01*
X006895Y009385D01*
X006910Y009454D01*
X006929Y009522D01*
X006951Y009590D01*
X006977Y009655D01*
X007007Y009720D01*
X007040Y009782D01*
X007077Y009842D01*
X007117Y009901D01*
X007160Y009957D01*
X007206Y010011D01*
X007256Y010061D01*
X007307Y010110D01*
X007362Y010155D01*
X007419Y010197D01*
X007478Y010236D01*
X007539Y010271D01*
X007602Y010304D01*
X007667Y010332D01*
X007733Y010357D01*
X007801Y010378D01*
X007869Y010396D01*
X007939Y010409D01*
X008009Y010419D01*
X008079Y010425D01*
X008150Y010427D01*
X008221Y010425D01*
X008291Y010419D01*
X008361Y010409D01*
X008431Y010396D01*
X008499Y010378D01*
X008567Y010357D01*
X008633Y010332D01*
X008698Y010304D01*
X008761Y010271D01*
X008822Y010236D01*
X008881Y010197D01*
X008938Y010155D01*
X008993Y010110D01*
X009044Y010061D01*
X009094Y010011D01*
X009140Y009957D01*
X009183Y009901D01*
X009223Y009842D01*
X009260Y009782D01*
X009293Y009720D01*
X009323Y009655D01*
X009349Y009590D01*
X009371Y009522D01*
X009390Y009454D01*
X009405Y009385D01*
X009416Y009315D01*
X009423Y009245D01*
X009427Y009174D01*
X009426Y009103D01*
X009422Y009033D01*
X009413Y008962D01*
X009401Y008893D01*
X009385Y008824D01*
X009365Y008756D01*
X009341Y008689D01*
X009314Y008624D01*
X009283Y008560D01*
X009248Y008498D01*
X009211Y008439D01*
X009169Y008381D01*
X009125Y008326D01*
X009078Y008273D01*
X009028Y008223D01*
X008975Y008176D01*
X008920Y008131D01*
X008915Y008139D01*
X008970Y008183D01*
X009023Y008231D01*
X009073Y008281D01*
X009121Y008334D01*
X009165Y008390D01*
X009206Y008448D01*
X009243Y008508D01*
X009278Y008570D01*
X009308Y008634D01*
X009335Y008700D01*
X009359Y008767D01*
X009378Y008835D01*
X009394Y008905D01*
X009406Y008975D01*
X009414Y009045D01*
X009418Y009116D01*
X009417Y009187D01*
X009413Y009258D01*
X009405Y009329D01*
X009393Y009399D01*
X009377Y009468D01*
X009358Y009536D01*
X009334Y009604D01*
X009307Y009669D01*
X009276Y009733D01*
X009242Y009795D01*
X009204Y009855D01*
X009162Y009913D01*
X009118Y009969D01*
X009071Y010022D01*
X009020Y010072D01*
X008967Y010119D01*
X008912Y010164D01*
X008854Y010205D01*
X008794Y010242D01*
X008731Y010277D01*
X008667Y010308D01*
X008602Y010335D01*
X008535Y010358D01*
X008466Y010378D01*
X008397Y010394D01*
X008327Y010406D01*
X008256Y010414D01*
X008186Y010418D01*
X008114Y010418D01*
X008044Y010414D01*
X007973Y010406D01*
X007903Y010394D01*
X007834Y010378D01*
X007765Y010358D01*
X007698Y010335D01*
X007633Y010308D01*
X007569Y010277D01*
X007506Y010242D01*
X007446Y010205D01*
X007388Y010164D01*
X007333Y010119D01*
X007280Y010072D01*
X007229Y010022D01*
X007182Y009969D01*
X007138Y009913D01*
X007096Y009855D01*
X007058Y009795D01*
X007024Y009733D01*
X006993Y009669D01*
X006966Y009604D01*
X006942Y009536D01*
X006923Y009468D01*
X006907Y009399D01*
X006895Y009329D01*
X006887Y009258D01*
X006883Y009187D01*
X006882Y009116D01*
X006886Y009045D01*
X006894Y008975D01*
X006906Y008905D01*
X006922Y008835D01*
X006941Y008767D01*
X006965Y008700D01*
X006992Y008634D01*
X007022Y008570D01*
X007057Y008508D01*
X007094Y008448D01*
X007135Y008390D01*
X007179Y008334D01*
X007227Y008281D01*
X007277Y008231D01*
X007330Y008183D01*
X007385Y008139D01*
X007391Y008146D01*
X007336Y008190D01*
X007283Y008237D01*
X007233Y008287D01*
X007186Y008340D01*
X007142Y008395D01*
X007102Y008453D01*
X007064Y008512D01*
X007030Y008574D01*
X007000Y008638D01*
X006973Y008703D01*
X006950Y008770D01*
X006930Y008838D01*
X006915Y008906D01*
X006903Y008976D01*
X006895Y009046D01*
X006891Y009117D01*
X006892Y009187D01*
X006896Y009258D01*
X006904Y009328D01*
X006916Y009397D01*
X006931Y009466D01*
X006951Y009534D01*
X006974Y009600D01*
X007001Y009665D01*
X007032Y009729D01*
X007066Y009791D01*
X007104Y009850D01*
X007145Y009908D01*
X007189Y009963D01*
X007236Y010016D01*
X007286Y010065D01*
X007338Y010112D01*
X007394Y010156D01*
X007451Y010197D01*
X007511Y010235D01*
X007573Y010269D01*
X007636Y010299D01*
X007701Y010326D01*
X007768Y010350D01*
X007836Y010369D01*
X007905Y010385D01*
X007974Y010397D01*
X008044Y010405D01*
X008115Y010409D01*
X008185Y010409D01*
X008256Y010405D01*
X008326Y010397D01*
X008395Y010385D01*
X008464Y010369D01*
X008532Y010350D01*
X008599Y010326D01*
X008664Y010299D01*
X008727Y010269D01*
X008789Y010235D01*
X008849Y010197D01*
X008906Y010156D01*
X008962Y010112D01*
X009014Y010065D01*
X009064Y010016D01*
X009111Y009963D01*
X009155Y009908D01*
X009196Y009850D01*
X009234Y009791D01*
X009268Y009729D01*
X009299Y009665D01*
X009326Y009600D01*
X009349Y009534D01*
X009369Y009466D01*
X009384Y009397D01*
X009396Y009328D01*
X009404Y009258D01*
X009408Y009187D01*
X009409Y009117D01*
X009405Y009046D01*
X009397Y008976D01*
X009385Y008906D01*
X009370Y008838D01*
X009350Y008770D01*
X009327Y008703D01*
X009300Y008638D01*
X009270Y008574D01*
X009236Y008512D01*
X009198Y008453D01*
X009158Y008395D01*
X009114Y008340D01*
X009067Y008287D01*
X009017Y008237D01*
X008964Y008190D01*
X008909Y008146D01*
X008904Y008153D01*
X008959Y008197D01*
X009011Y008244D01*
X009060Y008293D01*
X009107Y008346D01*
X009150Y008400D01*
X009191Y008458D01*
X009228Y008517D01*
X009262Y008578D01*
X009292Y008642D01*
X009319Y008706D01*
X009342Y008773D01*
X009361Y008840D01*
X009376Y008908D01*
X009388Y008977D01*
X009396Y009047D01*
X009400Y009117D01*
X009399Y009187D01*
X009395Y009257D01*
X009387Y009326D01*
X009376Y009395D01*
X009360Y009464D01*
X009341Y009531D01*
X009317Y009597D01*
X009290Y009662D01*
X009260Y009725D01*
X009226Y009786D01*
X009189Y009845D01*
X009148Y009903D01*
X009104Y009957D01*
X009058Y010009D01*
X009008Y010059D01*
X008956Y010106D01*
X008901Y010149D01*
X008844Y010190D01*
X008785Y010227D01*
X008723Y010261D01*
X008660Y010291D01*
X008595Y010318D01*
X008529Y010341D01*
X008462Y010360D01*
X008394Y010376D01*
X008325Y010388D01*
X008255Y010396D01*
X008185Y010400D01*
X008115Y010400D01*
X008045Y010396D01*
X007975Y010388D01*
X007906Y010376D01*
X007838Y010360D01*
X007771Y010341D01*
X007705Y010318D01*
X007640Y010291D01*
X007577Y010261D01*
X007515Y010227D01*
X007456Y010190D01*
X007399Y010149D01*
X007344Y010106D01*
X007292Y010059D01*
X007242Y010009D01*
X007196Y009957D01*
X007152Y009903D01*
X007111Y009845D01*
X007074Y009786D01*
X007040Y009725D01*
X007010Y009662D01*
X006983Y009597D01*
X006959Y009531D01*
X006940Y009464D01*
X006924Y009395D01*
X006913Y009326D01*
X006905Y009257D01*
X006901Y009187D01*
X006900Y009117D01*
X006904Y009047D01*
X006912Y008977D01*
X006924Y008908D01*
X006939Y008840D01*
X006958Y008773D01*
X006981Y008706D01*
X007008Y008642D01*
X007038Y008578D01*
X007072Y008517D01*
X007109Y008458D01*
X007150Y008400D01*
X007193Y008346D01*
X007240Y008293D01*
X007289Y008244D01*
X007341Y008197D01*
X007396Y008153D01*
X007401Y008160D01*
X007347Y008204D01*
X007295Y008250D01*
X007246Y008299D01*
X007200Y008351D01*
X007157Y008406D01*
X007117Y008463D01*
X007080Y008522D01*
X007046Y008583D01*
X007016Y008645D01*
X006990Y008710D01*
X006967Y008775D01*
X006948Y008842D01*
X006932Y008910D01*
X006921Y008979D01*
X006913Y009048D01*
X006909Y009117D01*
X006910Y009187D01*
X006914Y009256D01*
X006921Y009325D01*
X006933Y009394D01*
X006949Y009461D01*
X006968Y009528D01*
X006991Y009594D01*
X007018Y009658D01*
X007048Y009721D01*
X007082Y009782D01*
X007119Y009840D01*
X007159Y009897D01*
X007202Y009951D01*
X007249Y010003D01*
X007298Y010052D01*
X007350Y010099D01*
X007404Y010142D01*
X007461Y010182D01*
X007520Y010219D01*
X007581Y010253D01*
X007644Y010283D01*
X007708Y010310D01*
X007773Y010333D01*
X007840Y010352D01*
X007908Y010367D01*
X007977Y010379D01*
X008046Y010387D01*
X008115Y010391D01*
X008185Y010391D01*
X008254Y010387D01*
X008323Y010379D01*
X008392Y010367D01*
X008460Y010352D01*
X008527Y010333D01*
X008592Y010310D01*
X008656Y010283D01*
X008719Y010253D01*
X008780Y010219D01*
X008839Y010182D01*
X008896Y010142D01*
X008950Y010099D01*
X009002Y010052D01*
X009051Y010003D01*
X009098Y009951D01*
X009141Y009897D01*
X009181Y009840D01*
X009218Y009782D01*
X009252Y009721D01*
X009282Y009658D01*
X009309Y009594D01*
X009332Y009528D01*
X009351Y009461D01*
X009367Y009394D01*
X009379Y009325D01*
X009386Y009256D01*
X009390Y009187D01*
X009391Y009117D01*
X009387Y009048D01*
X009379Y008979D01*
X009368Y008910D01*
X009352Y008842D01*
X009333Y008775D01*
X009310Y008710D01*
X009284Y008645D01*
X009254Y008583D01*
X009220Y008522D01*
X009183Y008463D01*
X009143Y008406D01*
X009100Y008351D01*
X009054Y008299D01*
X009005Y008250D01*
X008953Y008204D01*
X008899Y008160D01*
X008893Y008167D01*
X008947Y008211D01*
X008998Y008257D01*
X009047Y008306D01*
X009093Y008357D01*
X009136Y008411D01*
X009176Y008468D01*
X009212Y008526D01*
X009246Y008587D01*
X009276Y008649D01*
X009302Y008713D01*
X009324Y008778D01*
X009343Y008844D01*
X009359Y008912D01*
X009370Y008980D01*
X009378Y009048D01*
X009382Y009117D01*
X009381Y009186D01*
X009377Y009255D01*
X009370Y009324D01*
X009358Y009392D01*
X009343Y009459D01*
X009323Y009526D01*
X009300Y009591D01*
X009274Y009654D01*
X009244Y009717D01*
X009211Y009777D01*
X009174Y009835D01*
X009134Y009892D01*
X009091Y009946D01*
X009045Y009997D01*
X008996Y010046D01*
X008944Y010092D01*
X008890Y010135D01*
X008834Y010175D01*
X008775Y010211D01*
X008715Y010245D01*
X008653Y010275D01*
X008589Y010301D01*
X008524Y010324D01*
X008457Y010343D01*
X008390Y010358D01*
X008322Y010370D01*
X008253Y010378D01*
X008185Y010382D01*
X008115Y010382D01*
X008047Y010378D01*
X007978Y010370D01*
X007910Y010358D01*
X007843Y010343D01*
X007776Y010324D01*
X007711Y010301D01*
X007647Y010275D01*
X007585Y010245D01*
X007525Y010211D01*
X007466Y010175D01*
X007410Y010135D01*
X007356Y010092D01*
X007304Y010046D01*
X007255Y009997D01*
X007209Y009946D01*
X007166Y009892D01*
X007126Y009835D01*
X007089Y009777D01*
X007056Y009717D01*
X007026Y009654D01*
X007000Y009591D01*
X006977Y009526D01*
X006957Y009459D01*
X006942Y009392D01*
X006930Y009324D01*
X006923Y009255D01*
X006919Y009186D01*
X006918Y009117D01*
X006922Y009048D01*
X006930Y008980D01*
X006941Y008912D01*
X006957Y008844D01*
X006976Y008778D01*
X006998Y008713D01*
X007024Y008649D01*
X007054Y008587D01*
X007088Y008526D01*
X007124Y008468D01*
X007164Y008411D01*
X007207Y008357D01*
X007253Y008306D01*
X007302Y008257D01*
X007353Y008211D01*
X007407Y008167D01*
X007412Y008175D01*
X007358Y008218D01*
X007307Y008264D01*
X007258Y008314D01*
X007212Y008365D01*
X007169Y008420D01*
X007129Y008477D01*
X007093Y008535D01*
X007059Y008596D01*
X007030Y008659D01*
X007004Y008723D01*
X006982Y008789D01*
X006963Y008856D01*
X006948Y008923D01*
X006937Y008992D01*
X006930Y009061D01*
X006927Y009130D01*
X006928Y009199D01*
X006933Y009269D01*
X006941Y009337D01*
X006954Y009405D01*
X006970Y009473D01*
X006991Y009539D01*
X007014Y009604D01*
X007042Y009668D01*
X007073Y009730D01*
X007108Y009790D01*
X007146Y009848D01*
X007187Y009904D01*
X007231Y009957D01*
X007278Y010008D01*
X007328Y010056D01*
X007381Y010101D01*
X007436Y010143D01*
X007493Y010182D01*
X007553Y010217D01*
X007614Y010249D01*
X007677Y010278D01*
X007742Y010303D01*
X007808Y010324D01*
X007875Y010342D01*
X007943Y010355D01*
X008012Y010365D01*
X008081Y010371D01*
X008150Y010373D01*
X008219Y010371D01*
X008288Y010365D01*
X008357Y010355D01*
X008425Y010342D01*
X008492Y010324D01*
X008558Y010303D01*
X008623Y010278D01*
X008686Y010249D01*
X008747Y010217D01*
X008807Y010182D01*
X008864Y010143D01*
X008919Y010101D01*
X008972Y010056D01*
X009022Y010008D01*
X009069Y009957D01*
X009113Y009904D01*
X009154Y009848D01*
X009192Y009790D01*
X009227Y009730D01*
X009258Y009668D01*
X009286Y009604D01*
X009309Y009539D01*
X009330Y009473D01*
X009346Y009405D01*
X009359Y009337D01*
X009367Y009269D01*
X009372Y009199D01*
X009373Y009130D01*
X009370Y009061D01*
X009363Y008992D01*
X009352Y008923D01*
X009337Y008856D01*
X009318Y008789D01*
X009296Y008723D01*
X009270Y008659D01*
X009241Y008596D01*
X009207Y008535D01*
X009171Y008477D01*
X009131Y008420D01*
X009088Y008365D01*
X009042Y008314D01*
X008993Y008264D01*
X008942Y008218D01*
X008888Y008175D01*
X008882Y008182D01*
X008936Y008225D01*
X008987Y008271D01*
X009036Y008320D01*
X009081Y008371D01*
X009124Y008425D01*
X009163Y008482D01*
X009200Y008540D01*
X009233Y008600D01*
X009262Y008663D01*
X009288Y008726D01*
X009310Y008792D01*
X009328Y008858D01*
X009343Y008925D01*
X009354Y008993D01*
X009361Y009062D01*
X009364Y009130D01*
X009363Y009199D01*
X009358Y009268D01*
X009350Y009336D01*
X009337Y009404D01*
X009321Y009470D01*
X009301Y009536D01*
X009277Y009601D01*
X009250Y009664D01*
X009219Y009725D01*
X009185Y009785D01*
X009147Y009843D01*
X009106Y009898D01*
X009062Y009951D01*
X009015Y010001D01*
X008966Y010049D01*
X008914Y010094D01*
X008859Y010136D01*
X008802Y010174D01*
X008743Y010209D01*
X008682Y010241D01*
X008619Y010270D01*
X008555Y010294D01*
X008489Y010316D01*
X008423Y010333D01*
X008355Y010346D01*
X008287Y010356D01*
X008219Y010362D01*
X008150Y010364D01*
X008081Y010362D01*
X008013Y010356D01*
X007945Y010346D01*
X007877Y010333D01*
X007811Y010316D01*
X007745Y010294D01*
X007681Y010270D01*
X007618Y010241D01*
X007557Y010209D01*
X007498Y010174D01*
X007441Y010136D01*
X007386Y010094D01*
X007334Y010049D01*
X007285Y010001D01*
X007238Y009951D01*
X007194Y009898D01*
X007153Y009843D01*
X007115Y009785D01*
X007081Y009725D01*
X007050Y009664D01*
X007023Y009601D01*
X006999Y009536D01*
X006979Y009470D01*
X006963Y009404D01*
X006950Y009336D01*
X006942Y009268D01*
X006937Y009199D01*
X006936Y009130D01*
X006939Y009062D01*
X006946Y008993D01*
X006957Y008925D01*
X006972Y008858D01*
X006990Y008792D01*
X007012Y008726D01*
X007038Y008663D01*
X007067Y008600D01*
X007100Y008540D01*
X007137Y008482D01*
X007176Y008425D01*
X007219Y008371D01*
X007264Y008320D01*
X007313Y008271D01*
X007364Y008225D01*
X007418Y008182D01*
X002430Y008118D02*
X002376Y008190D01*
X002377Y008189D02*
X002430Y008232D01*
X002481Y008277D01*
X002529Y008326D01*
X002574Y008377D01*
X002617Y008431D01*
X002656Y008487D01*
X002692Y008545D01*
X002725Y008605D01*
X002754Y008666D01*
X002779Y008730D01*
X002801Y008794D01*
X002820Y008860D01*
X002834Y008927D01*
X002845Y008994D01*
X002852Y009062D01*
X002855Y009130D01*
X002854Y009199D01*
X002849Y009267D01*
X002841Y009335D01*
X002828Y009402D01*
X002812Y009468D01*
X002792Y009533D01*
X002769Y009598D01*
X002742Y009660D01*
X002711Y009721D01*
X002677Y009780D01*
X002640Y009838D01*
X002599Y009893D01*
X002555Y009945D01*
X002509Y009995D01*
X002460Y010042D01*
X002408Y010087D01*
X002354Y010128D01*
X002297Y010167D01*
X002238Y010202D01*
X002178Y010233D01*
X002116Y010261D01*
X002052Y010286D01*
X001987Y010307D01*
X001921Y010324D01*
X001854Y010338D01*
X001786Y010347D01*
X001718Y010353D01*
X001650Y010355D01*
X001582Y010353D01*
X001514Y010347D01*
X001446Y010338D01*
X001379Y010324D01*
X001313Y010307D01*
X001248Y010286D01*
X001184Y010261D01*
X001122Y010233D01*
X001062Y010202D01*
X001003Y010167D01*
X000946Y010128D01*
X000892Y010087D01*
X000840Y010042D01*
X000791Y009995D01*
X000745Y009945D01*
X000701Y009893D01*
X000660Y009838D01*
X000623Y009780D01*
X000589Y009721D01*
X000558Y009660D01*
X000531Y009598D01*
X000508Y009533D01*
X000488Y009468D01*
X000472Y009402D01*
X000459Y009335D01*
X000451Y009267D01*
X000446Y009199D01*
X000445Y009130D01*
X000448Y009062D01*
X000455Y008994D01*
X000466Y008927D01*
X000480Y008860D01*
X000499Y008794D01*
X000521Y008730D01*
X000546Y008666D01*
X000575Y008605D01*
X000608Y008545D01*
X000644Y008487D01*
X000683Y008431D01*
X000726Y008377D01*
X000771Y008326D01*
X000819Y008277D01*
X000870Y008232D01*
X000923Y008189D01*
X000870Y008118D01*
X000869Y008117D01*
X000814Y008161D01*
X000761Y008209D01*
X000710Y008259D01*
X000663Y008312D01*
X000619Y008367D01*
X000577Y008425D01*
X000539Y008485D01*
X000504Y008546D01*
X000473Y008610D01*
X000445Y008675D01*
X000421Y008742D01*
X000400Y008810D01*
X000384Y008879D01*
X000371Y008949D01*
X000362Y009019D01*
X000356Y009090D01*
X000355Y009161D01*
X000358Y009232D01*
X000364Y009303D01*
X000374Y009373D01*
X000388Y009442D01*
X000406Y009511D01*
X000428Y009579D01*
X000453Y009645D01*
X000482Y009710D01*
X000515Y009773D01*
X000551Y009834D01*
X000590Y009893D01*
X000632Y009950D01*
X000677Y010005D01*
X000726Y010057D01*
X000777Y010106D01*
X000830Y010153D01*
X000887Y010196D01*
X000945Y010236D01*
X001006Y010273D01*
X001068Y010307D01*
X001132Y010337D01*
X001198Y010364D01*
X001265Y010387D01*
X001334Y010406D01*
X001403Y010421D01*
X001473Y010433D01*
X001544Y010441D01*
X001615Y010445D01*
X001685Y010445D01*
X001756Y010441D01*
X001827Y010433D01*
X001897Y010421D01*
X001966Y010406D01*
X002035Y010387D01*
X002102Y010364D01*
X002168Y010337D01*
X002232Y010307D01*
X002294Y010273D01*
X002355Y010236D01*
X002413Y010196D01*
X002470Y010153D01*
X002523Y010106D01*
X002574Y010057D01*
X002623Y010005D01*
X002668Y009950D01*
X002710Y009893D01*
X002749Y009834D01*
X002785Y009773D01*
X002818Y009710D01*
X002847Y009645D01*
X002872Y009579D01*
X002894Y009511D01*
X002912Y009442D01*
X002926Y009373D01*
X002936Y009303D01*
X002942Y009232D01*
X002945Y009161D01*
X002944Y009090D01*
X002938Y009019D01*
X002929Y008949D01*
X002916Y008879D01*
X002900Y008810D01*
X002879Y008742D01*
X002855Y008675D01*
X002827Y008610D01*
X002796Y008546D01*
X002761Y008485D01*
X002723Y008425D01*
X002681Y008367D01*
X002637Y008312D01*
X002590Y008259D01*
X002539Y008209D01*
X002486Y008161D01*
X002431Y008117D01*
X002426Y008124D01*
X002481Y008169D01*
X002534Y008216D01*
X002585Y008267D01*
X002632Y008320D01*
X002677Y008376D01*
X002718Y008434D01*
X002756Y008494D01*
X002791Y008556D01*
X002822Y008620D01*
X002849Y008686D01*
X002873Y008753D01*
X002893Y008822D01*
X002910Y008891D01*
X002922Y008961D01*
X002931Y009032D01*
X002935Y009103D01*
X002936Y009174D01*
X002932Y009245D01*
X002925Y009316D01*
X002914Y009387D01*
X002899Y009456D01*
X002880Y009525D01*
X002857Y009593D01*
X002831Y009659D01*
X002801Y009724D01*
X002767Y009786D01*
X002731Y009847D01*
X002690Y009906D01*
X002647Y009963D01*
X002600Y010017D01*
X002551Y010068D01*
X002498Y010116D01*
X002444Y010162D01*
X002386Y010204D01*
X002327Y010243D01*
X002265Y010279D01*
X002202Y010312D01*
X002137Y010340D01*
X002070Y010366D01*
X002002Y010387D01*
X001933Y010405D01*
X001863Y010418D01*
X001792Y010428D01*
X001721Y010434D01*
X001650Y010436D01*
X001579Y010434D01*
X001508Y010428D01*
X001437Y010418D01*
X001367Y010405D01*
X001298Y010387D01*
X001230Y010366D01*
X001163Y010340D01*
X001098Y010312D01*
X001035Y010279D01*
X000973Y010243D01*
X000914Y010204D01*
X000856Y010162D01*
X000802Y010116D01*
X000749Y010068D01*
X000700Y010017D01*
X000653Y009963D01*
X000610Y009906D01*
X000569Y009847D01*
X000533Y009786D01*
X000499Y009724D01*
X000469Y009659D01*
X000443Y009593D01*
X000420Y009525D01*
X000401Y009456D01*
X000386Y009387D01*
X000375Y009316D01*
X000368Y009245D01*
X000364Y009174D01*
X000365Y009103D01*
X000369Y009032D01*
X000378Y008961D01*
X000390Y008891D01*
X000407Y008822D01*
X000427Y008753D01*
X000451Y008686D01*
X000478Y008620D01*
X000509Y008556D01*
X000544Y008494D01*
X000582Y008434D01*
X000623Y008376D01*
X000668Y008320D01*
X000715Y008267D01*
X000766Y008216D01*
X000819Y008169D01*
X000874Y008124D01*
X000880Y008131D01*
X000825Y008176D01*
X000772Y008223D01*
X000722Y008273D01*
X000675Y008326D01*
X000631Y008381D01*
X000589Y008439D01*
X000552Y008498D01*
X000517Y008560D01*
X000486Y008624D01*
X000459Y008689D01*
X000435Y008756D01*
X000415Y008824D01*
X000399Y008893D01*
X000387Y008962D01*
X000378Y009033D01*
X000374Y009103D01*
X000373Y009174D01*
X000377Y009245D01*
X000384Y009315D01*
X000395Y009385D01*
X000410Y009454D01*
X000429Y009522D01*
X000451Y009590D01*
X000477Y009655D01*
X000507Y009720D01*
X000540Y009782D01*
X000577Y009842D01*
X000617Y009901D01*
X000660Y009957D01*
X000706Y010011D01*
X000756Y010061D01*
X000807Y010110D01*
X000862Y010155D01*
X000919Y010197D01*
X000978Y010236D01*
X001039Y010271D01*
X001102Y010304D01*
X001167Y010332D01*
X001233Y010357D01*
X001301Y010378D01*
X001369Y010396D01*
X001439Y010409D01*
X001509Y010419D01*
X001579Y010425D01*
X001650Y010427D01*
X001721Y010425D01*
X001791Y010419D01*
X001861Y010409D01*
X001931Y010396D01*
X001999Y010378D01*
X002067Y010357D01*
X002133Y010332D01*
X002198Y010304D01*
X002261Y010271D01*
X002322Y010236D01*
X002381Y010197D01*
X002438Y010155D01*
X002493Y010110D01*
X002544Y010061D01*
X002594Y010011D01*
X002640Y009957D01*
X002683Y009901D01*
X002723Y009842D01*
X002760Y009782D01*
X002793Y009720D01*
X002823Y009655D01*
X002849Y009590D01*
X002871Y009522D01*
X002890Y009454D01*
X002905Y009385D01*
X002916Y009315D01*
X002923Y009245D01*
X002927Y009174D01*
X002926Y009103D01*
X002922Y009033D01*
X002913Y008962D01*
X002901Y008893D01*
X002885Y008824D01*
X002865Y008756D01*
X002841Y008689D01*
X002814Y008624D01*
X002783Y008560D01*
X002748Y008498D01*
X002711Y008439D01*
X002669Y008381D01*
X002625Y008326D01*
X002578Y008273D01*
X002528Y008223D01*
X002475Y008176D01*
X002420Y008131D01*
X002415Y008139D01*
X002470Y008183D01*
X002523Y008231D01*
X002573Y008281D01*
X002621Y008334D01*
X002665Y008390D01*
X002706Y008448D01*
X002743Y008508D01*
X002778Y008570D01*
X002808Y008634D01*
X002835Y008700D01*
X002859Y008767D01*
X002878Y008835D01*
X002894Y008905D01*
X002906Y008975D01*
X002914Y009045D01*
X002918Y009116D01*
X002917Y009187D01*
X002913Y009258D01*
X002905Y009329D01*
X002893Y009399D01*
X002877Y009468D01*
X002858Y009536D01*
X002834Y009604D01*
X002807Y009669D01*
X002776Y009733D01*
X002742Y009795D01*
X002704Y009855D01*
X002662Y009913D01*
X002618Y009969D01*
X002571Y010022D01*
X002520Y010072D01*
X002467Y010119D01*
X002412Y010164D01*
X002354Y010205D01*
X002294Y010242D01*
X002231Y010277D01*
X002167Y010308D01*
X002102Y010335D01*
X002035Y010358D01*
X001966Y010378D01*
X001897Y010394D01*
X001827Y010406D01*
X001756Y010414D01*
X001686Y010418D01*
X001614Y010418D01*
X001544Y010414D01*
X001473Y010406D01*
X001403Y010394D01*
X001334Y010378D01*
X001265Y010358D01*
X001198Y010335D01*
X001133Y010308D01*
X001069Y010277D01*
X001006Y010242D01*
X000946Y010205D01*
X000888Y010164D01*
X000833Y010119D01*
X000780Y010072D01*
X000729Y010022D01*
X000682Y009969D01*
X000638Y009913D01*
X000596Y009855D01*
X000558Y009795D01*
X000524Y009733D01*
X000493Y009669D01*
X000466Y009604D01*
X000442Y009536D01*
X000423Y009468D01*
X000407Y009399D01*
X000395Y009329D01*
X000387Y009258D01*
X000383Y009187D01*
X000382Y009116D01*
X000386Y009045D01*
X000394Y008975D01*
X000406Y008905D01*
X000422Y008835D01*
X000441Y008767D01*
X000465Y008700D01*
X000492Y008634D01*
X000522Y008570D01*
X000557Y008508D01*
X000594Y008448D01*
X000635Y008390D01*
X000679Y008334D01*
X000727Y008281D01*
X000777Y008231D01*
X000830Y008183D01*
X000885Y008139D01*
X000891Y008146D01*
X000836Y008190D01*
X000783Y008237D01*
X000733Y008287D01*
X000686Y008340D01*
X000642Y008395D01*
X000602Y008453D01*
X000564Y008512D01*
X000530Y008574D01*
X000500Y008638D01*
X000473Y008703D01*
X000450Y008770D01*
X000430Y008838D01*
X000415Y008906D01*
X000403Y008976D01*
X000395Y009046D01*
X000391Y009117D01*
X000392Y009187D01*
X000396Y009258D01*
X000404Y009328D01*
X000416Y009397D01*
X000431Y009466D01*
X000451Y009534D01*
X000474Y009600D01*
X000501Y009665D01*
X000532Y009729D01*
X000566Y009791D01*
X000604Y009850D01*
X000645Y009908D01*
X000689Y009963D01*
X000736Y010016D01*
X000786Y010065D01*
X000838Y010112D01*
X000894Y010156D01*
X000951Y010197D01*
X001011Y010235D01*
X001073Y010269D01*
X001136Y010299D01*
X001201Y010326D01*
X001268Y010350D01*
X001336Y010369D01*
X001405Y010385D01*
X001474Y010397D01*
X001544Y010405D01*
X001615Y010409D01*
X001685Y010409D01*
X001756Y010405D01*
X001826Y010397D01*
X001895Y010385D01*
X001964Y010369D01*
X002032Y010350D01*
X002099Y010326D01*
X002164Y010299D01*
X002227Y010269D01*
X002289Y010235D01*
X002349Y010197D01*
X002406Y010156D01*
X002462Y010112D01*
X002514Y010065D01*
X002564Y010016D01*
X002611Y009963D01*
X002655Y009908D01*
X002696Y009850D01*
X002734Y009791D01*
X002768Y009729D01*
X002799Y009665D01*
X002826Y009600D01*
X002849Y009534D01*
X002869Y009466D01*
X002884Y009397D01*
X002896Y009328D01*
X002904Y009258D01*
X002908Y009187D01*
X002909Y009117D01*
X002905Y009046D01*
X002897Y008976D01*
X002885Y008906D01*
X002870Y008838D01*
X002850Y008770D01*
X002827Y008703D01*
X002800Y008638D01*
X002770Y008574D01*
X002736Y008512D01*
X002698Y008453D01*
X002658Y008395D01*
X002614Y008340D01*
X002567Y008287D01*
X002517Y008237D01*
X002464Y008190D01*
X002409Y008146D01*
X002404Y008153D01*
X002459Y008197D01*
X002511Y008244D01*
X002560Y008293D01*
X002607Y008346D01*
X002650Y008400D01*
X002691Y008458D01*
X002728Y008517D01*
X002762Y008578D01*
X002792Y008642D01*
X002819Y008706D01*
X002842Y008773D01*
X002861Y008840D01*
X002876Y008908D01*
X002888Y008977D01*
X002896Y009047D01*
X002900Y009117D01*
X002899Y009187D01*
X002895Y009257D01*
X002887Y009326D01*
X002876Y009395D01*
X002860Y009464D01*
X002841Y009531D01*
X002817Y009597D01*
X002790Y009662D01*
X002760Y009725D01*
X002726Y009786D01*
X002689Y009845D01*
X002648Y009903D01*
X002604Y009957D01*
X002558Y010009D01*
X002508Y010059D01*
X002456Y010106D01*
X002401Y010149D01*
X002344Y010190D01*
X002285Y010227D01*
X002223Y010261D01*
X002160Y010291D01*
X002095Y010318D01*
X002029Y010341D01*
X001962Y010360D01*
X001894Y010376D01*
X001825Y010388D01*
X001755Y010396D01*
X001685Y010400D01*
X001615Y010400D01*
X001545Y010396D01*
X001475Y010388D01*
X001406Y010376D01*
X001338Y010360D01*
X001271Y010341D01*
X001205Y010318D01*
X001140Y010291D01*
X001077Y010261D01*
X001015Y010227D01*
X000956Y010190D01*
X000899Y010149D01*
X000844Y010106D01*
X000792Y010059D01*
X000742Y010009D01*
X000696Y009957D01*
X000652Y009903D01*
X000611Y009845D01*
X000574Y009786D01*
X000540Y009725D01*
X000510Y009662D01*
X000483Y009597D01*
X000459Y009531D01*
X000440Y009464D01*
X000424Y009395D01*
X000413Y009326D01*
X000405Y009257D01*
X000401Y009187D01*
X000400Y009117D01*
X000404Y009047D01*
X000412Y008977D01*
X000424Y008908D01*
X000439Y008840D01*
X000458Y008773D01*
X000481Y008706D01*
X000508Y008642D01*
X000538Y008578D01*
X000572Y008517D01*
X000609Y008458D01*
X000650Y008400D01*
X000693Y008346D01*
X000740Y008293D01*
X000789Y008244D01*
X000841Y008197D01*
X000896Y008153D01*
X000901Y008160D01*
X000847Y008204D01*
X000795Y008250D01*
X000746Y008299D01*
X000700Y008351D01*
X000657Y008406D01*
X000617Y008463D01*
X000580Y008522D01*
X000546Y008583D01*
X000516Y008645D01*
X000490Y008710D01*
X000467Y008775D01*
X000448Y008842D01*
X000432Y008910D01*
X000421Y008979D01*
X000413Y009048D01*
X000409Y009117D01*
X000410Y009187D01*
X000414Y009256D01*
X000421Y009325D01*
X000433Y009394D01*
X000449Y009461D01*
X000468Y009528D01*
X000491Y009594D01*
X000518Y009658D01*
X000548Y009721D01*
X000582Y009782D01*
X000619Y009840D01*
X000659Y009897D01*
X000702Y009951D01*
X000749Y010003D01*
X000798Y010052D01*
X000850Y010099D01*
X000904Y010142D01*
X000961Y010182D01*
X001020Y010219D01*
X001081Y010253D01*
X001144Y010283D01*
X001208Y010310D01*
X001273Y010333D01*
X001340Y010352D01*
X001408Y010367D01*
X001477Y010379D01*
X001546Y010387D01*
X001615Y010391D01*
X001685Y010391D01*
X001754Y010387D01*
X001823Y010379D01*
X001892Y010367D01*
X001960Y010352D01*
X002027Y010333D01*
X002092Y010310D01*
X002156Y010283D01*
X002219Y010253D01*
X002280Y010219D01*
X002339Y010182D01*
X002396Y010142D01*
X002450Y010099D01*
X002502Y010052D01*
X002551Y010003D01*
X002598Y009951D01*
X002641Y009897D01*
X002681Y009840D01*
X002718Y009782D01*
X002752Y009721D01*
X002782Y009658D01*
X002809Y009594D01*
X002832Y009528D01*
X002851Y009461D01*
X002867Y009394D01*
X002879Y009325D01*
X002886Y009256D01*
X002890Y009187D01*
X002891Y009117D01*
X002887Y009048D01*
X002879Y008979D01*
X002868Y008910D01*
X002852Y008842D01*
X002833Y008775D01*
X002810Y008710D01*
X002784Y008645D01*
X002754Y008583D01*
X002720Y008522D01*
X002683Y008463D01*
X002643Y008406D01*
X002600Y008351D01*
X002554Y008299D01*
X002505Y008250D01*
X002453Y008204D01*
X002399Y008160D01*
X002393Y008167D01*
X002447Y008211D01*
X002498Y008257D01*
X002547Y008306D01*
X002593Y008357D01*
X002636Y008411D01*
X002676Y008468D01*
X002712Y008526D01*
X002746Y008587D01*
X002776Y008649D01*
X002802Y008713D01*
X002824Y008778D01*
X002843Y008844D01*
X002859Y008912D01*
X002870Y008980D01*
X002878Y009048D01*
X002882Y009117D01*
X002881Y009186D01*
X002877Y009255D01*
X002870Y009324D01*
X002858Y009392D01*
X002843Y009459D01*
X002823Y009526D01*
X002800Y009591D01*
X002774Y009654D01*
X002744Y009717D01*
X002711Y009777D01*
X002674Y009835D01*
X002634Y009892D01*
X002591Y009946D01*
X002545Y009997D01*
X002496Y010046D01*
X002444Y010092D01*
X002390Y010135D01*
X002334Y010175D01*
X002275Y010211D01*
X002215Y010245D01*
X002153Y010275D01*
X002089Y010301D01*
X002024Y010324D01*
X001957Y010343D01*
X001890Y010358D01*
X001822Y010370D01*
X001753Y010378D01*
X001685Y010382D01*
X001615Y010382D01*
X001547Y010378D01*
X001478Y010370D01*
X001410Y010358D01*
X001343Y010343D01*
X001276Y010324D01*
X001211Y010301D01*
X001147Y010275D01*
X001085Y010245D01*
X001025Y010211D01*
X000966Y010175D01*
X000910Y010135D01*
X000856Y010092D01*
X000804Y010046D01*
X000755Y009997D01*
X000709Y009946D01*
X000666Y009892D01*
X000626Y009835D01*
X000589Y009777D01*
X000556Y009717D01*
X000526Y009654D01*
X000500Y009591D01*
X000477Y009526D01*
X000457Y009459D01*
X000442Y009392D01*
X000430Y009324D01*
X000423Y009255D01*
X000419Y009186D01*
X000418Y009117D01*
X000422Y009048D01*
X000430Y008980D01*
X000441Y008912D01*
X000457Y008844D01*
X000476Y008778D01*
X000498Y008713D01*
X000524Y008649D01*
X000554Y008587D01*
X000588Y008526D01*
X000624Y008468D01*
X000664Y008411D01*
X000707Y008357D01*
X000753Y008306D01*
X000802Y008257D01*
X000853Y008211D01*
X000907Y008167D01*
X000912Y008175D01*
X000858Y008218D01*
X000807Y008264D01*
X000758Y008314D01*
X000712Y008365D01*
X000669Y008420D01*
X000629Y008477D01*
X000593Y008535D01*
X000559Y008596D01*
X000530Y008659D01*
X000504Y008723D01*
X000482Y008789D01*
X000463Y008856D01*
X000448Y008923D01*
X000437Y008992D01*
X000430Y009061D01*
X000427Y009130D01*
X000428Y009199D01*
X000433Y009269D01*
X000441Y009337D01*
X000454Y009405D01*
X000470Y009473D01*
X000491Y009539D01*
X000514Y009604D01*
X000542Y009668D01*
X000573Y009730D01*
X000608Y009790D01*
X000646Y009848D01*
X000687Y009904D01*
X000731Y009957D01*
X000778Y010008D01*
X000828Y010056D01*
X000881Y010101D01*
X000936Y010143D01*
X000993Y010182D01*
X001053Y010217D01*
X001114Y010249D01*
X001177Y010278D01*
X001242Y010303D01*
X001308Y010324D01*
X001375Y010342D01*
X001443Y010355D01*
X001512Y010365D01*
X001581Y010371D01*
X001650Y010373D01*
X001719Y010371D01*
X001788Y010365D01*
X001857Y010355D01*
X001925Y010342D01*
X001992Y010324D01*
X002058Y010303D01*
X002123Y010278D01*
X002186Y010249D01*
X002247Y010217D01*
X002307Y010182D01*
X002364Y010143D01*
X002419Y010101D01*
X002472Y010056D01*
X002522Y010008D01*
X002569Y009957D01*
X002613Y009904D01*
X002654Y009848D01*
X002692Y009790D01*
X002727Y009730D01*
X002758Y009668D01*
X002786Y009604D01*
X002809Y009539D01*
X002830Y009473D01*
X002846Y009405D01*
X002859Y009337D01*
X002867Y009269D01*
X002872Y009199D01*
X002873Y009130D01*
X002870Y009061D01*
X002863Y008992D01*
X002852Y008923D01*
X002837Y008856D01*
X002818Y008789D01*
X002796Y008723D01*
X002770Y008659D01*
X002741Y008596D01*
X002707Y008535D01*
X002671Y008477D01*
X002631Y008420D01*
X002588Y008365D01*
X002542Y008314D01*
X002493Y008264D01*
X002442Y008218D01*
X002388Y008175D01*
X002382Y008182D01*
X002436Y008225D01*
X002487Y008271D01*
X002536Y008320D01*
X002581Y008371D01*
X002624Y008425D01*
X002663Y008482D01*
X002700Y008540D01*
X002733Y008600D01*
X002762Y008663D01*
X002788Y008726D01*
X002810Y008792D01*
X002828Y008858D01*
X002843Y008925D01*
X002854Y008993D01*
X002861Y009062D01*
X002864Y009130D01*
X002863Y009199D01*
X002858Y009268D01*
X002850Y009336D01*
X002837Y009404D01*
X002821Y009470D01*
X002801Y009536D01*
X002777Y009601D01*
X002750Y009664D01*
X002719Y009725D01*
X002685Y009785D01*
X002647Y009843D01*
X002606Y009898D01*
X002562Y009951D01*
X002515Y010001D01*
X002466Y010049D01*
X002414Y010094D01*
X002359Y010136D01*
X002302Y010174D01*
X002243Y010209D01*
X002182Y010241D01*
X002119Y010270D01*
X002055Y010294D01*
X001989Y010316D01*
X001923Y010333D01*
X001855Y010346D01*
X001787Y010356D01*
X001719Y010362D01*
X001650Y010364D01*
X001581Y010362D01*
X001513Y010356D01*
X001445Y010346D01*
X001377Y010333D01*
X001311Y010316D01*
X001245Y010294D01*
X001181Y010270D01*
X001118Y010241D01*
X001057Y010209D01*
X000998Y010174D01*
X000941Y010136D01*
X000886Y010094D01*
X000834Y010049D01*
X000785Y010001D01*
X000738Y009951D01*
X000694Y009898D01*
X000653Y009843D01*
X000615Y009785D01*
X000581Y009725D01*
X000550Y009664D01*
X000523Y009601D01*
X000499Y009536D01*
X000479Y009470D01*
X000463Y009404D01*
X000450Y009336D01*
X000442Y009268D01*
X000437Y009199D01*
X000436Y009130D01*
X000439Y009062D01*
X000446Y008993D01*
X000457Y008925D01*
X000472Y008858D01*
X000490Y008792D01*
X000512Y008726D01*
X000538Y008663D01*
X000567Y008600D01*
X000600Y008540D01*
X000637Y008482D01*
X000676Y008425D01*
X000719Y008371D01*
X000764Y008320D01*
X000813Y008271D01*
X000864Y008225D01*
X000918Y008182D01*
D14*
X000650Y009150D02*
X000652Y009213D01*
X000658Y009275D01*
X000668Y009337D01*
X000681Y009399D01*
X000699Y009459D01*
X000720Y009518D01*
X000745Y009576D01*
X000774Y009632D01*
X000806Y009686D01*
X000841Y009738D01*
X000879Y009787D01*
X000921Y009835D01*
X000965Y009879D01*
X001013Y009921D01*
X001062Y009959D01*
X001114Y009994D01*
X001168Y010026D01*
X001224Y010055D01*
X001282Y010080D01*
X001341Y010101D01*
X001401Y010119D01*
X001463Y010132D01*
X001525Y010142D01*
X001587Y010148D01*
X001650Y010150D01*
X001713Y010148D01*
X001775Y010142D01*
X001837Y010132D01*
X001899Y010119D01*
X001959Y010101D01*
X002018Y010080D01*
X002076Y010055D01*
X002132Y010026D01*
X002186Y009994D01*
X002238Y009959D01*
X002287Y009921D01*
X002335Y009879D01*
X002379Y009835D01*
X002421Y009787D01*
X002459Y009738D01*
X002494Y009686D01*
X002526Y009632D01*
X002555Y009576D01*
X002580Y009518D01*
X002601Y009459D01*
X002619Y009399D01*
X002632Y009337D01*
X002642Y009275D01*
X002648Y009213D01*
X002650Y009150D01*
X002648Y009087D01*
X002642Y009025D01*
X002632Y008963D01*
X002619Y008901D01*
X002601Y008841D01*
X002580Y008782D01*
X002555Y008724D01*
X002526Y008668D01*
X002494Y008614D01*
X002459Y008562D01*
X002421Y008513D01*
X002379Y008465D01*
X002335Y008421D01*
X002287Y008379D01*
X002238Y008341D01*
X002186Y008306D01*
X002132Y008274D01*
X002076Y008245D01*
X002018Y008220D01*
X001959Y008199D01*
X001899Y008181D01*
X001837Y008168D01*
X001775Y008158D01*
X001713Y008152D01*
X001650Y008150D01*
X001587Y008152D01*
X001525Y008158D01*
X001463Y008168D01*
X001401Y008181D01*
X001341Y008199D01*
X001282Y008220D01*
X001224Y008245D01*
X001168Y008274D01*
X001114Y008306D01*
X001062Y008341D01*
X001013Y008379D01*
X000965Y008421D01*
X000921Y008465D01*
X000879Y008513D01*
X000841Y008562D01*
X000806Y008614D01*
X000774Y008668D01*
X000745Y008724D01*
X000720Y008782D01*
X000699Y008841D01*
X000681Y008901D01*
X000668Y008963D01*
X000658Y009025D01*
X000652Y009087D01*
X000650Y009150D01*
X002914Y007768D02*
X002914Y007532D01*
X003386Y007532D02*
X003386Y007768D01*
X007150Y009150D02*
X007152Y009213D01*
X007158Y009275D01*
X007168Y009337D01*
X007181Y009399D01*
X007199Y009459D01*
X007220Y009518D01*
X007245Y009576D01*
X007274Y009632D01*
X007306Y009686D01*
X007341Y009738D01*
X007379Y009787D01*
X007421Y009835D01*
X007465Y009879D01*
X007513Y009921D01*
X007562Y009959D01*
X007614Y009994D01*
X007668Y010026D01*
X007724Y010055D01*
X007782Y010080D01*
X007841Y010101D01*
X007901Y010119D01*
X007963Y010132D01*
X008025Y010142D01*
X008087Y010148D01*
X008150Y010150D01*
X008213Y010148D01*
X008275Y010142D01*
X008337Y010132D01*
X008399Y010119D01*
X008459Y010101D01*
X008518Y010080D01*
X008576Y010055D01*
X008632Y010026D01*
X008686Y009994D01*
X008738Y009959D01*
X008787Y009921D01*
X008835Y009879D01*
X008879Y009835D01*
X008921Y009787D01*
X008959Y009738D01*
X008994Y009686D01*
X009026Y009632D01*
X009055Y009576D01*
X009080Y009518D01*
X009101Y009459D01*
X009119Y009399D01*
X009132Y009337D01*
X009142Y009275D01*
X009148Y009213D01*
X009150Y009150D01*
X009148Y009087D01*
X009142Y009025D01*
X009132Y008963D01*
X009119Y008901D01*
X009101Y008841D01*
X009080Y008782D01*
X009055Y008724D01*
X009026Y008668D01*
X008994Y008614D01*
X008959Y008562D01*
X008921Y008513D01*
X008879Y008465D01*
X008835Y008421D01*
X008787Y008379D01*
X008738Y008341D01*
X008686Y008306D01*
X008632Y008274D01*
X008576Y008245D01*
X008518Y008220D01*
X008459Y008199D01*
X008399Y008181D01*
X008337Y008168D01*
X008275Y008158D01*
X008213Y008152D01*
X008150Y008150D01*
X008087Y008152D01*
X008025Y008158D01*
X007963Y008168D01*
X007901Y008181D01*
X007841Y008199D01*
X007782Y008220D01*
X007724Y008245D01*
X007668Y008274D01*
X007614Y008306D01*
X007562Y008341D01*
X007513Y008379D01*
X007465Y008421D01*
X007421Y008465D01*
X007379Y008513D01*
X007341Y008562D01*
X007306Y008614D01*
X007274Y008668D01*
X007245Y008724D01*
X007220Y008782D01*
X007199Y008841D01*
X007181Y008901D01*
X007168Y008963D01*
X007158Y009025D01*
X007152Y009087D01*
X007150Y009150D01*
X009664Y008018D02*
X009664Y007782D01*
X010136Y007782D02*
X010136Y008018D01*
X009268Y004886D02*
X009032Y004886D01*
X009032Y004414D02*
X009268Y004414D01*
X009268Y004136D02*
X009032Y004136D01*
X009032Y003664D02*
X009268Y003664D01*
X004268Y003914D02*
X004032Y003914D01*
X004032Y004386D02*
X004268Y004386D01*
X004268Y003386D02*
X004032Y003386D01*
X004032Y002914D02*
X004268Y002914D01*
X016032Y009664D02*
X016268Y009664D01*
X016268Y010136D02*
X016032Y010136D01*
D15*
X016096Y007930D02*
X015789Y007930D01*
X015942Y007930D02*
X015942Y007470D01*
X015635Y007470D02*
X015635Y007930D01*
X015328Y007930D02*
X015635Y007470D01*
X015328Y007470D02*
X015328Y007930D01*
X015175Y007930D02*
X014868Y007930D01*
X014868Y007470D01*
X015175Y007470D01*
X015021Y007700D02*
X014868Y007700D01*
X014715Y007854D02*
X014638Y007930D01*
X014484Y007930D01*
X014408Y007854D01*
X014408Y007547D01*
X014484Y007470D01*
X014638Y007470D01*
X014715Y007547D01*
X016249Y007470D02*
X016556Y007470D01*
X016710Y007470D02*
X016710Y007930D01*
X016940Y007930D01*
X017017Y007854D01*
X017017Y007700D01*
X016940Y007623D01*
X016710Y007623D01*
X016863Y007623D02*
X017017Y007470D01*
X016403Y007700D02*
X016249Y007700D01*
X016249Y007930D02*
X016249Y007470D01*
X016249Y007930D02*
X016556Y007930D01*
X016517Y005430D02*
X016210Y005123D01*
X016286Y005200D02*
X016517Y004970D01*
X016210Y004970D02*
X016210Y005430D01*
X016056Y005354D02*
X015979Y005430D01*
X015826Y005430D01*
X015749Y005354D01*
X015749Y005047D01*
X015826Y004970D01*
X015979Y004970D01*
X016056Y005047D01*
X015596Y004970D02*
X015596Y005277D01*
X015442Y005430D01*
X015289Y005277D01*
X015289Y004970D01*
X015135Y005047D02*
X015059Y004970D01*
X014828Y004970D01*
X014828Y005430D01*
X015059Y005430D01*
X015135Y005354D01*
X015135Y005277D01*
X015059Y005200D01*
X014828Y005200D01*
X015059Y005200D02*
X015135Y005123D01*
X015135Y005047D01*
X015289Y005200D02*
X015596Y005200D01*
X015616Y002930D02*
X015539Y002854D01*
X015539Y002547D01*
X015616Y002470D01*
X015769Y002470D01*
X015846Y002547D01*
X015846Y002854D01*
X015769Y002930D01*
X015616Y002930D01*
X015385Y002854D02*
X015385Y002700D01*
X015309Y002623D01*
X015078Y002623D01*
X015232Y002623D02*
X015385Y002470D01*
X015078Y002470D02*
X015078Y002930D01*
X015309Y002930D01*
X015385Y002854D01*
X014925Y002930D02*
X014618Y002930D01*
X014618Y002470D01*
X014618Y002700D02*
X014771Y002700D01*
X015999Y002470D02*
X015999Y002930D01*
X016306Y002470D01*
X016306Y002930D01*
X016460Y002930D02*
X016767Y002930D01*
X016613Y002930D02*
X016613Y002470D01*
M02*
