G75*
G70*
%OFA0B0*%
%FSLAX24Y24*%
%IPPOS*%
%LPD*%
%AMOC8*
5,1,8,0,0,1.08239X$1,22.5*
%
%ADD10C,0.0650*%
%ADD11C,0.0740*%
%ADD12C,0.0600*%
%ADD13C,0.0100*%
%ADD14C,0.0160*%
D10*
X001150Y001150D03*
X002150Y001150D03*
X003150Y001150D03*
X004150Y001150D03*
X005150Y001150D03*
X006150Y001150D03*
X007150Y001150D03*
X008150Y001150D03*
X009150Y001150D03*
X010150Y001150D03*
X011150Y001150D03*
X012150Y001150D03*
X013150Y001150D03*
X013150Y002150D03*
X012150Y002150D03*
X011150Y002150D03*
X010150Y002150D03*
X009150Y002150D03*
X008150Y002150D03*
X007150Y002150D03*
X006150Y002150D03*
X005150Y002150D03*
X004150Y002150D03*
X003150Y002150D03*
X002150Y002150D03*
X001150Y002150D03*
D11*
X002150Y003900D03*
X001650Y004650D03*
X002650Y004650D03*
X001650Y006150D03*
X004650Y006150D03*
X006150Y006150D03*
X006650Y004650D03*
X007650Y004650D03*
X007150Y003900D03*
X009150Y006150D03*
X008150Y008650D03*
X008150Y009650D03*
X001650Y009650D03*
X001650Y008650D03*
D12*
X004100Y009350D02*
X004100Y009950D01*
X005200Y009950D02*
X005200Y009350D01*
X010600Y009350D02*
X010600Y009950D01*
X011700Y009950D02*
X011700Y009350D01*
X014650Y008950D02*
X014650Y008350D01*
X015650Y008450D02*
X015650Y009050D01*
X016650Y008950D02*
X016650Y008350D01*
X015650Y006550D02*
X015650Y005950D01*
X014650Y005850D02*
X014650Y006450D01*
X016650Y006450D02*
X016650Y005850D01*
X015650Y004050D02*
X015650Y003450D01*
X014650Y003350D02*
X014650Y003950D01*
X016650Y003950D02*
X016650Y003350D01*
D13*
X000600Y000600D02*
X000600Y010196D01*
X003738Y010196D01*
X003735Y010194D01*
X003670Y010036D01*
X003670Y009264D01*
X003735Y009106D01*
X003856Y008985D01*
X004014Y008920D01*
X004186Y008920D01*
X004344Y008985D01*
X004465Y009106D01*
X004530Y009264D01*
X004530Y010036D01*
X004465Y010194D01*
X004462Y010196D01*
X004823Y010196D01*
X004815Y010186D01*
X004783Y010123D01*
X004761Y010055D01*
X004750Y009985D01*
X004750Y009700D01*
X005150Y009700D01*
X005150Y009600D01*
X004750Y009600D01*
X004750Y009315D01*
X004761Y009245D01*
X004783Y009177D01*
X004815Y009114D01*
X004857Y009057D01*
X004907Y009007D01*
X004964Y008965D01*
X005027Y008933D01*
X005095Y008911D01*
X005150Y008902D01*
X005150Y009600D01*
X005250Y009600D01*
X005250Y009700D01*
X005650Y009700D01*
X005650Y009985D01*
X005639Y010055D01*
X005617Y010123D01*
X005585Y010186D01*
X005577Y010196D01*
X010238Y010196D01*
X010235Y010194D01*
X010170Y010036D01*
X010170Y009264D01*
X010235Y009106D01*
X010356Y008985D01*
X010514Y008920D01*
X010686Y008920D01*
X010844Y008985D01*
X010965Y009106D01*
X011030Y009264D01*
X011030Y010036D01*
X010965Y010194D01*
X010962Y010196D01*
X011323Y010196D01*
X011315Y010186D01*
X011283Y010123D01*
X011261Y010055D01*
X011250Y009985D01*
X011250Y009700D01*
X011650Y009700D01*
X011650Y009600D01*
X011750Y009600D01*
X011750Y009700D01*
X012150Y009700D01*
X012150Y009985D01*
X012139Y010055D01*
X012117Y010123D01*
X012085Y010186D01*
X012077Y010196D01*
X017070Y010196D01*
X017070Y009059D01*
X017015Y009194D01*
X016894Y009315D01*
X016736Y009380D01*
X016564Y009380D01*
X016406Y009315D01*
X016285Y009194D01*
X016220Y009036D01*
X016220Y008264D01*
X016285Y008106D01*
X016406Y007985D01*
X016564Y007920D01*
X016736Y007920D01*
X016894Y007985D01*
X017015Y008106D01*
X017070Y008241D01*
X017070Y006559D01*
X017015Y006694D01*
X016894Y006815D01*
X016736Y006880D01*
X016564Y006880D01*
X016406Y006815D01*
X016285Y006694D01*
X016220Y006536D01*
X016220Y005764D01*
X016285Y005606D01*
X016406Y005485D01*
X016564Y005420D01*
X016736Y005420D01*
X016894Y005485D01*
X017015Y005606D01*
X017070Y005741D01*
X017070Y004059D01*
X017015Y004194D01*
X016894Y004315D01*
X016736Y004380D01*
X016564Y004380D01*
X016406Y004315D01*
X016285Y004194D01*
X016220Y004036D01*
X016220Y003264D01*
X016285Y003106D01*
X016406Y002985D01*
X016564Y002920D01*
X016736Y002920D01*
X016894Y002985D01*
X017015Y003106D01*
X017070Y003241D01*
X017070Y000600D01*
X000600Y000600D01*
X000600Y000643D02*
X017070Y000643D01*
X017070Y000741D02*
X013394Y000741D01*
X013399Y000744D02*
X013459Y000788D01*
X013512Y000841D01*
X013556Y000901D01*
X013590Y000968D01*
X013613Y001039D01*
X013623Y001100D01*
X013200Y001100D01*
X013200Y001200D01*
X013100Y001200D01*
X013100Y001623D01*
X013039Y001613D01*
X012968Y001590D01*
X012901Y001556D01*
X012841Y001512D01*
X012788Y001459D01*
X012744Y001399D01*
X012710Y001332D01*
X012590Y001332D01*
X012556Y001399D01*
X012512Y001459D01*
X012459Y001512D01*
X012399Y001556D01*
X012332Y001590D01*
X012261Y001613D01*
X012200Y001623D01*
X012200Y001200D01*
X012100Y001200D01*
X012100Y001623D01*
X012039Y001613D01*
X011968Y001590D01*
X011901Y001556D01*
X011841Y001512D01*
X011788Y001459D01*
X011744Y001399D01*
X011710Y001332D01*
X011567Y001332D01*
X011536Y001408D02*
X011408Y001536D01*
X011241Y001605D01*
X011059Y001605D01*
X010892Y001536D01*
X010764Y001408D01*
X010695Y001241D01*
X010695Y001059D01*
X010764Y000892D01*
X010892Y000764D01*
X011059Y000695D01*
X011241Y000695D01*
X011408Y000764D01*
X011536Y000892D01*
X011605Y001059D01*
X011605Y001241D01*
X011536Y001408D01*
X011513Y001431D02*
X011767Y001431D01*
X011710Y001332D02*
X011687Y001261D01*
X011677Y001200D01*
X012100Y001200D01*
X012100Y001100D01*
X011677Y001100D01*
X011687Y001039D01*
X011710Y000968D01*
X011744Y000901D01*
X011788Y000841D01*
X011841Y000788D01*
X011901Y000744D01*
X011968Y000710D01*
X012039Y000687D01*
X012100Y000677D01*
X012100Y001100D01*
X012200Y001100D01*
X012200Y001200D01*
X012623Y001200D01*
X012613Y001261D01*
X012590Y001332D01*
X012618Y001234D02*
X012682Y001234D01*
X012687Y001261D02*
X012677Y001200D01*
X013100Y001200D01*
X013100Y001100D01*
X012677Y001100D01*
X012687Y001039D01*
X012710Y000968D01*
X012744Y000901D01*
X012788Y000841D01*
X012841Y000788D01*
X012901Y000744D01*
X012968Y000710D01*
X013039Y000687D01*
X013100Y000677D01*
X013100Y001100D01*
X013200Y001100D01*
X013200Y000677D01*
X013261Y000687D01*
X013332Y000710D01*
X013399Y000744D01*
X013511Y000840D02*
X017070Y000840D01*
X017070Y000938D02*
X013575Y000938D01*
X013613Y001037D02*
X017070Y001037D01*
X017070Y001135D02*
X013200Y001135D01*
X013200Y001200D02*
X013623Y001200D01*
X013613Y001261D01*
X013590Y001332D01*
X017070Y001332D01*
X017070Y001234D02*
X013618Y001234D01*
X013590Y001332D02*
X013556Y001399D01*
X013512Y001459D01*
X013459Y001512D01*
X013399Y001556D01*
X013332Y001590D01*
X013261Y001613D01*
X013200Y001623D01*
X013200Y001200D01*
X013200Y001234D02*
X013100Y001234D01*
X013100Y001332D02*
X013200Y001332D01*
X013200Y001431D02*
X013100Y001431D01*
X013100Y001529D02*
X013200Y001529D01*
X013241Y001695D02*
X013059Y001695D01*
X012892Y001764D01*
X012764Y001892D01*
X012695Y002059D01*
X012695Y002241D01*
X012764Y002408D01*
X012892Y002536D01*
X013059Y002605D01*
X013241Y002605D01*
X013408Y002536D01*
X013536Y002408D01*
X013605Y002241D01*
X013605Y002059D01*
X013536Y001892D01*
X013408Y001764D01*
X013241Y001695D01*
X013315Y001726D02*
X017070Y001726D01*
X017070Y001628D02*
X000600Y001628D01*
X000600Y001726D02*
X000985Y001726D01*
X001059Y001695D02*
X001241Y001695D01*
X001408Y001764D01*
X001536Y001892D01*
X001605Y002059D01*
X001605Y002241D01*
X001536Y002408D01*
X001408Y002536D01*
X001241Y002605D01*
X001059Y002605D01*
X000892Y002536D01*
X000764Y002408D01*
X000695Y002241D01*
X000695Y002059D01*
X000764Y001892D01*
X000892Y001764D01*
X001059Y001695D01*
X001059Y001605D02*
X000892Y001536D01*
X000764Y001408D01*
X000695Y001241D01*
X000695Y001059D01*
X000764Y000892D01*
X000892Y000764D01*
X001059Y000695D01*
X001241Y000695D01*
X001408Y000764D01*
X001536Y000892D01*
X001605Y001059D01*
X001605Y001241D01*
X001536Y001408D01*
X001408Y001536D01*
X001241Y001605D01*
X001059Y001605D01*
X000886Y001529D02*
X000600Y001529D01*
X000600Y001431D02*
X000787Y001431D01*
X000733Y001332D02*
X000600Y001332D01*
X000600Y001234D02*
X000695Y001234D01*
X000695Y001135D02*
X000600Y001135D01*
X000600Y001037D02*
X000705Y001037D01*
X000745Y000938D02*
X000600Y000938D01*
X000600Y000840D02*
X000817Y000840D01*
X000948Y000741D02*
X000600Y000741D01*
X001352Y000741D02*
X001948Y000741D01*
X001892Y000764D02*
X002059Y000695D01*
X002241Y000695D01*
X002408Y000764D01*
X002536Y000892D01*
X002605Y001059D01*
X002605Y001241D01*
X002536Y001408D01*
X002408Y001536D01*
X002241Y001605D01*
X002059Y001605D01*
X001892Y001536D01*
X001764Y001408D01*
X001695Y001241D01*
X001695Y001059D01*
X001764Y000892D01*
X001892Y000764D01*
X001817Y000840D02*
X001483Y000840D01*
X001555Y000938D02*
X001745Y000938D01*
X001705Y001037D02*
X001595Y001037D01*
X001605Y001135D02*
X001695Y001135D01*
X001695Y001234D02*
X001605Y001234D01*
X001567Y001332D02*
X001733Y001332D01*
X001787Y001431D02*
X001513Y001431D01*
X001414Y001529D02*
X001886Y001529D01*
X001985Y001726D02*
X001315Y001726D01*
X001468Y001825D02*
X001832Y001825D01*
X001892Y001764D02*
X002059Y001695D01*
X002241Y001695D01*
X002408Y001764D01*
X002536Y001892D01*
X002605Y002059D01*
X002605Y002241D01*
X002536Y002408D01*
X002408Y002536D01*
X002241Y002605D01*
X002059Y002605D01*
X001892Y002536D01*
X001764Y002408D01*
X001695Y002241D01*
X001695Y002059D01*
X001764Y001892D01*
X001892Y001764D01*
X001752Y001923D02*
X001548Y001923D01*
X001589Y002022D02*
X001711Y002022D01*
X001695Y002120D02*
X001605Y002120D01*
X001605Y002219D02*
X001695Y002219D01*
X001727Y002317D02*
X001573Y002317D01*
X001528Y002416D02*
X001772Y002416D01*
X001871Y002514D02*
X001429Y002514D01*
X000871Y002514D02*
X000600Y002514D01*
X000600Y002416D02*
X000772Y002416D01*
X000727Y002317D02*
X000600Y002317D01*
X000600Y002219D02*
X000695Y002219D01*
X000695Y002120D02*
X000600Y002120D01*
X000600Y002022D02*
X000711Y002022D01*
X000752Y001923D02*
X000600Y001923D01*
X000600Y001825D02*
X000832Y001825D01*
X000600Y002613D02*
X009940Y002613D01*
X009940Y002556D02*
X009892Y002536D01*
X009764Y002408D01*
X009695Y002241D01*
X009695Y002059D01*
X009764Y001892D01*
X009892Y001764D01*
X010059Y001695D01*
X010241Y001695D01*
X010408Y001764D01*
X010536Y001892D01*
X010605Y002059D01*
X010605Y002241D01*
X010536Y002408D01*
X010408Y002536D01*
X010360Y002556D01*
X010360Y002563D01*
X010487Y002690D01*
X013813Y002690D01*
X013940Y002563D01*
X014063Y002440D01*
X015487Y002440D01*
X015737Y002690D01*
X015860Y002813D01*
X015860Y003072D01*
X015894Y003085D01*
X016015Y003206D01*
X016080Y003364D01*
X016080Y004136D01*
X016015Y004294D01*
X015894Y004415D01*
X015736Y004480D01*
X015564Y004480D01*
X015406Y004415D01*
X015285Y004294D01*
X015220Y004136D01*
X015220Y003364D01*
X015285Y003206D01*
X015406Y003085D01*
X015440Y003072D01*
X015440Y002987D01*
X015313Y002860D01*
X014237Y002860D01*
X013987Y003110D01*
X010313Y003110D01*
X010190Y002987D01*
X009940Y002737D01*
X009940Y002556D01*
X009871Y002514D02*
X009429Y002514D01*
X009408Y002536D02*
X009241Y002605D01*
X009059Y002605D01*
X008892Y002536D01*
X008764Y002408D01*
X008695Y002241D01*
X008695Y002059D01*
X008764Y001892D01*
X008892Y001764D01*
X009059Y001695D01*
X009241Y001695D01*
X009408Y001764D01*
X009536Y001892D01*
X009605Y002059D01*
X009605Y002241D01*
X009536Y002408D01*
X009408Y002536D01*
X009528Y002416D02*
X009772Y002416D01*
X009727Y002317D02*
X009573Y002317D01*
X009605Y002219D02*
X009695Y002219D01*
X009695Y002120D02*
X009605Y002120D01*
X009589Y002022D02*
X009711Y002022D01*
X009752Y001923D02*
X009548Y001923D01*
X009468Y001825D02*
X009832Y001825D01*
X009985Y001726D02*
X009315Y001726D01*
X009241Y001605D02*
X009059Y001605D01*
X008892Y001536D01*
X008764Y001408D01*
X008695Y001241D01*
X008695Y001059D01*
X008764Y000892D01*
X008892Y000764D01*
X009059Y000695D01*
X009241Y000695D01*
X009408Y000764D01*
X009536Y000892D01*
X009605Y001059D01*
X009605Y001241D01*
X009536Y001408D01*
X009408Y001536D01*
X009241Y001605D01*
X009414Y001529D02*
X009886Y001529D01*
X009892Y001536D02*
X009764Y001408D01*
X009695Y001241D01*
X009695Y001059D01*
X009764Y000892D01*
X009892Y000764D01*
X010059Y000695D01*
X010241Y000695D01*
X010408Y000764D01*
X010536Y000892D01*
X010605Y001059D01*
X010605Y001241D01*
X010536Y001408D01*
X010408Y001536D01*
X010241Y001605D01*
X010059Y001605D01*
X009892Y001536D01*
X009787Y001431D02*
X009513Y001431D01*
X009567Y001332D02*
X009733Y001332D01*
X009695Y001234D02*
X009605Y001234D01*
X009605Y001135D02*
X009695Y001135D01*
X009705Y001037D02*
X009595Y001037D01*
X009555Y000938D02*
X009745Y000938D01*
X009817Y000840D02*
X009483Y000840D01*
X009352Y000741D02*
X009948Y000741D01*
X010352Y000741D02*
X010948Y000741D01*
X010817Y000840D02*
X010483Y000840D01*
X010555Y000938D02*
X010745Y000938D01*
X010705Y001037D02*
X010595Y001037D01*
X010605Y001135D02*
X010695Y001135D01*
X010695Y001234D02*
X010605Y001234D01*
X010567Y001332D02*
X010733Y001332D01*
X010787Y001431D02*
X010513Y001431D01*
X010414Y001529D02*
X010886Y001529D01*
X010985Y001726D02*
X010315Y001726D01*
X010468Y001825D02*
X010832Y001825D01*
X010892Y001764D02*
X010764Y001892D01*
X010695Y002059D01*
X010695Y002241D01*
X010764Y002408D01*
X010892Y002536D01*
X011059Y002605D01*
X011241Y002605D01*
X011408Y002536D01*
X011536Y002408D01*
X011605Y002241D01*
X011605Y002059D01*
X011536Y001892D01*
X011408Y001764D01*
X011241Y001695D01*
X011059Y001695D01*
X010892Y001764D01*
X010752Y001923D02*
X010548Y001923D01*
X010589Y002022D02*
X010711Y002022D01*
X010695Y002120D02*
X010605Y002120D01*
X010605Y002219D02*
X010695Y002219D01*
X010727Y002317D02*
X010573Y002317D01*
X010528Y002416D02*
X010772Y002416D01*
X010871Y002514D02*
X010429Y002514D01*
X010409Y002613D02*
X013891Y002613D01*
X013989Y002514D02*
X013429Y002514D01*
X013528Y002416D02*
X017070Y002416D01*
X017070Y002514D02*
X015561Y002514D01*
X015659Y002613D02*
X017070Y002613D01*
X017070Y002711D02*
X015758Y002711D01*
X015856Y002810D02*
X017070Y002810D01*
X017070Y002908D02*
X015860Y002908D01*
X015860Y003007D02*
X016385Y003007D01*
X016287Y003105D02*
X015913Y003105D01*
X016012Y003204D02*
X016245Y003204D01*
X016220Y003302D02*
X016054Y003302D01*
X016080Y003401D02*
X016220Y003401D01*
X016220Y003499D02*
X016080Y003499D01*
X016080Y003598D02*
X016220Y003598D01*
X016220Y003696D02*
X016080Y003696D01*
X016080Y003795D02*
X016220Y003795D01*
X016220Y003893D02*
X016080Y003893D01*
X016080Y003992D02*
X016220Y003992D01*
X016243Y004090D02*
X016080Y004090D01*
X016058Y004189D02*
X016283Y004189D01*
X016379Y004287D02*
X016017Y004287D01*
X015923Y004386D02*
X017070Y004386D01*
X017070Y004484D02*
X008122Y004484D01*
X008150Y004551D02*
X008074Y004367D01*
X007933Y004226D01*
X007749Y004150D01*
X007588Y004150D01*
X007650Y003999D01*
X007650Y003801D01*
X007574Y003617D01*
X007433Y003476D01*
X007249Y003400D01*
X007051Y003400D01*
X006867Y003476D01*
X006726Y003617D01*
X006650Y003801D01*
X006650Y003999D01*
X006712Y004150D01*
X006551Y004150D01*
X006367Y004226D01*
X006226Y004367D01*
X006150Y004551D01*
X006150Y004749D01*
X006226Y004933D01*
X006367Y005074D01*
X006551Y005150D01*
X006749Y005150D01*
X006933Y005074D01*
X007074Y004933D01*
X007150Y004749D01*
X007150Y004551D01*
X007088Y004400D01*
X007212Y004400D01*
X007150Y004551D01*
X007150Y004749D01*
X007226Y004933D01*
X007367Y005074D01*
X007411Y005092D01*
X007313Y005190D01*
X003487Y005190D01*
X003120Y004823D01*
X003150Y004749D01*
X003150Y004551D01*
X003074Y004367D01*
X002933Y004226D01*
X002749Y004150D01*
X002588Y004150D01*
X002650Y003999D01*
X002650Y003801D01*
X002574Y003617D01*
X002433Y003476D01*
X002249Y003400D01*
X002051Y003400D01*
X001867Y003476D01*
X001726Y003617D01*
X001650Y003801D01*
X001650Y003999D01*
X001712Y004150D01*
X001551Y004150D01*
X001367Y004226D01*
X001226Y004367D01*
X001150Y004551D01*
X001150Y004749D01*
X001226Y004933D01*
X001367Y005074D01*
X001551Y005150D01*
X001749Y005150D01*
X001933Y005074D01*
X002074Y004933D01*
X002150Y004749D01*
X002150Y004551D01*
X002088Y004400D01*
X002212Y004400D01*
X002150Y004551D01*
X002150Y004749D01*
X002226Y004933D01*
X002367Y005074D01*
X002551Y005150D01*
X002749Y005150D01*
X002823Y005120D01*
X003313Y005610D01*
X007487Y005610D01*
X007610Y005487D01*
X007860Y005237D01*
X007860Y005104D01*
X007933Y005074D01*
X008074Y004933D01*
X008150Y004749D01*
X008150Y004551D01*
X008150Y004583D02*
X017070Y004583D01*
X017070Y004681D02*
X008150Y004681D01*
X008138Y004780D02*
X017070Y004780D01*
X017070Y004878D02*
X008097Y004878D01*
X008031Y004977D02*
X017070Y004977D01*
X017070Y005075D02*
X007930Y005075D01*
X007860Y005174D02*
X017070Y005174D01*
X017070Y005272D02*
X007825Y005272D01*
X007726Y005371D02*
X017070Y005371D01*
X017070Y005469D02*
X016854Y005469D01*
X016976Y005568D02*
X017070Y005568D01*
X017070Y005666D02*
X017039Y005666D01*
X016446Y005469D02*
X014854Y005469D01*
X014894Y005485D02*
X015015Y005606D01*
X015080Y005764D01*
X015080Y006536D01*
X015015Y006694D01*
X014894Y006815D01*
X014736Y006880D01*
X014564Y006880D01*
X014406Y006815D01*
X014285Y006694D01*
X014220Y006536D01*
X014220Y005764D01*
X014285Y005606D01*
X014406Y005485D01*
X014564Y005420D01*
X014736Y005420D01*
X014894Y005485D01*
X014976Y005568D02*
X015450Y005568D01*
X015406Y005585D02*
X015564Y005520D01*
X015736Y005520D01*
X015894Y005585D01*
X016015Y005706D01*
X016080Y005864D01*
X016080Y006636D01*
X016015Y006794D01*
X015894Y006915D01*
X015736Y006980D01*
X015564Y006980D01*
X015406Y006915D01*
X015285Y006794D01*
X015220Y006636D01*
X015220Y005864D01*
X015285Y005706D01*
X015406Y005585D01*
X015326Y005666D02*
X015039Y005666D01*
X015080Y005765D02*
X015261Y005765D01*
X015221Y005863D02*
X015080Y005863D01*
X015080Y005962D02*
X015220Y005962D01*
X015220Y006060D02*
X015080Y006060D01*
X015080Y006159D02*
X015220Y006159D01*
X015220Y006257D02*
X015080Y006257D01*
X015080Y006356D02*
X015220Y006356D01*
X015220Y006454D02*
X015080Y006454D01*
X015073Y006553D02*
X015220Y006553D01*
X015226Y006651D02*
X015032Y006651D01*
X014959Y006750D02*
X015267Y006750D01*
X015340Y006848D02*
X014813Y006848D01*
X014487Y006848D02*
X000600Y006848D01*
X000600Y006750D02*
X014341Y006750D01*
X014268Y006651D02*
X009291Y006651D01*
X009272Y006657D02*
X009191Y006670D01*
X009189Y006670D01*
X009189Y006189D01*
X009670Y006189D01*
X009670Y006191D01*
X009657Y006272D01*
X009632Y006350D01*
X009595Y006423D01*
X009547Y006489D01*
X009489Y006547D01*
X009423Y006595D01*
X009350Y006632D01*
X009272Y006657D01*
X009189Y006651D02*
X009111Y006651D01*
X009111Y006670D02*
X009109Y006670D01*
X009028Y006657D01*
X008950Y006632D01*
X008877Y006595D01*
X008811Y006547D01*
X008753Y006489D01*
X008705Y006423D01*
X008668Y006350D01*
X008643Y006272D01*
X008630Y006191D01*
X008630Y006189D01*
X009111Y006189D01*
X009111Y006670D01*
X009009Y006651D02*
X004791Y006651D01*
X004772Y006657D02*
X004691Y006670D01*
X004689Y006670D01*
X004689Y006189D01*
X005170Y006189D01*
X005170Y006191D01*
X005157Y006272D01*
X005132Y006350D01*
X005095Y006423D01*
X005047Y006489D01*
X004989Y006547D01*
X004923Y006595D01*
X004850Y006632D01*
X004772Y006657D01*
X004689Y006651D02*
X004611Y006651D01*
X004611Y006670D02*
X004609Y006670D01*
X004528Y006657D01*
X004450Y006632D01*
X004377Y006595D01*
X004311Y006547D01*
X004253Y006489D01*
X004205Y006423D01*
X004168Y006350D01*
X004143Y006272D01*
X004130Y006191D01*
X004130Y006189D01*
X004611Y006189D01*
X004611Y006670D01*
X004509Y006651D02*
X000600Y006651D01*
X000600Y006553D02*
X001345Y006553D01*
X001367Y006574D02*
X001226Y006433D01*
X001150Y006249D01*
X001150Y006051D01*
X001226Y005867D01*
X001367Y005726D01*
X001551Y005650D01*
X001749Y005650D01*
X001933Y005726D01*
X002074Y005867D01*
X002150Y006051D01*
X002150Y006249D01*
X002074Y006433D01*
X001933Y006574D01*
X001749Y006650D01*
X001551Y006650D01*
X001367Y006574D01*
X001247Y006454D02*
X000600Y006454D01*
X000600Y006356D02*
X001194Y006356D01*
X001153Y006257D02*
X000600Y006257D01*
X000600Y006159D02*
X001150Y006159D01*
X001150Y006060D02*
X000600Y006060D01*
X000600Y005962D02*
X001187Y005962D01*
X001230Y005863D02*
X000600Y005863D01*
X000600Y005765D02*
X001328Y005765D01*
X001512Y005666D02*
X000600Y005666D01*
X000600Y005568D02*
X003271Y005568D01*
X003172Y005469D02*
X000600Y005469D01*
X000600Y005371D02*
X003074Y005371D01*
X002975Y005272D02*
X000600Y005272D01*
X000600Y005174D02*
X002877Y005174D01*
X003175Y004878D02*
X006203Y004878D01*
X006162Y004780D02*
X003138Y004780D01*
X003150Y004681D02*
X006150Y004681D01*
X006150Y004583D02*
X003150Y004583D01*
X003122Y004484D02*
X006178Y004484D01*
X006218Y004386D02*
X003082Y004386D01*
X002994Y004287D02*
X006306Y004287D01*
X006458Y004189D02*
X002842Y004189D01*
X002612Y004090D02*
X006688Y004090D01*
X006650Y003992D02*
X002650Y003992D01*
X002650Y003893D02*
X006650Y003893D01*
X006652Y003795D02*
X002647Y003795D01*
X002607Y003696D02*
X006693Y003696D01*
X006745Y003598D02*
X002555Y003598D01*
X002456Y003499D02*
X006844Y003499D01*
X007049Y003401D02*
X002251Y003401D01*
X002049Y003401D02*
X000600Y003401D01*
X000600Y003499D02*
X001844Y003499D01*
X001745Y003598D02*
X000600Y003598D01*
X000600Y003696D02*
X001693Y003696D01*
X001652Y003795D02*
X000600Y003795D01*
X000600Y003893D02*
X001650Y003893D01*
X001650Y003992D02*
X000600Y003992D01*
X000600Y004090D02*
X001688Y004090D01*
X001458Y004189D02*
X000600Y004189D01*
X000600Y004287D02*
X001306Y004287D01*
X001218Y004386D02*
X000600Y004386D01*
X000600Y004484D02*
X001178Y004484D01*
X001150Y004583D02*
X000600Y004583D01*
X000600Y004681D02*
X001150Y004681D01*
X001162Y004780D02*
X000600Y004780D01*
X000600Y004878D02*
X001203Y004878D01*
X001269Y004977D02*
X000600Y004977D01*
X000600Y005075D02*
X001370Y005075D01*
X001930Y005075D02*
X002370Y005075D01*
X002269Y004977D02*
X002031Y004977D01*
X002097Y004878D02*
X002203Y004878D01*
X002162Y004780D02*
X002138Y004780D01*
X002150Y004681D02*
X002150Y004681D01*
X002150Y004583D02*
X002150Y004583D01*
X002122Y004484D02*
X002178Y004484D01*
X003273Y004977D02*
X006269Y004977D01*
X006370Y005075D02*
X003372Y005075D01*
X003470Y005174D02*
X007330Y005174D01*
X007370Y005075D02*
X006930Y005075D01*
X007031Y004977D02*
X007269Y004977D01*
X007203Y004878D02*
X007097Y004878D01*
X007138Y004780D02*
X007162Y004780D01*
X007150Y004681D02*
X007150Y004681D01*
X007150Y004583D02*
X007150Y004583D01*
X007122Y004484D02*
X007178Y004484D01*
X007612Y004090D02*
X014243Y004090D01*
X014220Y004036D02*
X014285Y004194D01*
X014406Y004315D01*
X014564Y004380D01*
X014736Y004380D01*
X014894Y004315D01*
X015015Y004194D01*
X015080Y004036D01*
X015080Y003264D01*
X015015Y003106D01*
X014894Y002985D01*
X014736Y002920D01*
X014564Y002920D01*
X014406Y002985D01*
X014285Y003106D01*
X014220Y003264D01*
X014220Y004036D01*
X014220Y003992D02*
X007650Y003992D01*
X007650Y003893D02*
X014220Y003893D01*
X014220Y003795D02*
X007647Y003795D01*
X007607Y003696D02*
X014220Y003696D01*
X014220Y003598D02*
X007555Y003598D01*
X007456Y003499D02*
X014220Y003499D01*
X014220Y003401D02*
X007251Y003401D01*
X007241Y002605D02*
X007059Y002605D01*
X006892Y002536D01*
X006764Y002408D01*
X006695Y002241D01*
X006695Y002059D01*
X006764Y001892D01*
X006892Y001764D01*
X007059Y001695D01*
X007241Y001695D01*
X007408Y001764D01*
X007536Y001892D01*
X007605Y002059D01*
X007605Y002241D01*
X007536Y002408D01*
X007408Y002536D01*
X007241Y002605D01*
X007429Y002514D02*
X007871Y002514D01*
X007892Y002536D02*
X007764Y002408D01*
X007695Y002241D01*
X007695Y002059D01*
X007764Y001892D01*
X007892Y001764D01*
X008059Y001695D01*
X008241Y001695D01*
X008408Y001764D01*
X008536Y001892D01*
X008605Y002059D01*
X008605Y002241D01*
X008536Y002408D01*
X008408Y002536D01*
X008241Y002605D01*
X008059Y002605D01*
X007892Y002536D01*
X007772Y002416D02*
X007528Y002416D01*
X007573Y002317D02*
X007727Y002317D01*
X007695Y002219D02*
X007605Y002219D01*
X007605Y002120D02*
X007695Y002120D01*
X007711Y002022D02*
X007589Y002022D01*
X007548Y001923D02*
X007752Y001923D01*
X007832Y001825D02*
X007468Y001825D01*
X007315Y001726D02*
X007985Y001726D01*
X008059Y001605D02*
X007892Y001536D01*
X007764Y001408D01*
X007695Y001241D01*
X007695Y001059D01*
X007764Y000892D01*
X007892Y000764D01*
X008059Y000695D01*
X008241Y000695D01*
X008408Y000764D01*
X008536Y000892D01*
X008605Y001059D01*
X008605Y001241D01*
X008536Y001408D01*
X008408Y001536D01*
X008241Y001605D01*
X008059Y001605D01*
X007886Y001529D02*
X007414Y001529D01*
X007408Y001536D02*
X007241Y001605D01*
X007059Y001605D01*
X006892Y001536D01*
X006764Y001408D01*
X006695Y001241D01*
X006695Y001059D01*
X006764Y000892D01*
X006892Y000764D01*
X007059Y000695D01*
X007241Y000695D01*
X007408Y000764D01*
X007536Y000892D01*
X007605Y001059D01*
X007605Y001241D01*
X007536Y001408D01*
X007408Y001536D01*
X007513Y001431D02*
X007787Y001431D01*
X007733Y001332D02*
X007567Y001332D01*
X007605Y001234D02*
X007695Y001234D01*
X007695Y001135D02*
X007605Y001135D01*
X007595Y001037D02*
X007705Y001037D01*
X007745Y000938D02*
X007555Y000938D01*
X007483Y000840D02*
X007817Y000840D01*
X007948Y000741D02*
X007352Y000741D01*
X006948Y000741D02*
X006352Y000741D01*
X006408Y000764D02*
X006241Y000695D01*
X006059Y000695D01*
X005892Y000764D01*
X005764Y000892D01*
X005695Y001059D01*
X005695Y001241D01*
X005764Y001408D01*
X005892Y001536D01*
X006059Y001605D01*
X006241Y001605D01*
X006408Y001536D01*
X006536Y001408D01*
X006605Y001241D01*
X006605Y001059D01*
X006536Y000892D01*
X006408Y000764D01*
X006483Y000840D02*
X006817Y000840D01*
X006745Y000938D02*
X006555Y000938D01*
X006595Y001037D02*
X006705Y001037D01*
X006695Y001135D02*
X006605Y001135D01*
X006605Y001234D02*
X006695Y001234D01*
X006733Y001332D02*
X006567Y001332D01*
X006513Y001431D02*
X006787Y001431D01*
X006886Y001529D02*
X006414Y001529D01*
X006315Y001726D02*
X006985Y001726D01*
X006832Y001825D02*
X006468Y001825D01*
X006408Y001764D02*
X006241Y001695D01*
X006059Y001695D01*
X005892Y001764D01*
X005764Y001892D01*
X005695Y002059D01*
X005695Y002241D01*
X005764Y002408D01*
X005892Y002536D01*
X006059Y002605D01*
X006241Y002605D01*
X006408Y002536D01*
X006536Y002408D01*
X006605Y002241D01*
X006605Y002059D01*
X006536Y001892D01*
X006408Y001764D01*
X006548Y001923D02*
X006752Y001923D01*
X006711Y002022D02*
X006589Y002022D01*
X006605Y002120D02*
X006695Y002120D01*
X006695Y002219D02*
X006605Y002219D01*
X006573Y002317D02*
X006727Y002317D01*
X006772Y002416D02*
X006528Y002416D01*
X006429Y002514D02*
X006871Y002514D01*
X005871Y002514D02*
X005429Y002514D01*
X005408Y002536D02*
X005241Y002605D01*
X005059Y002605D01*
X004892Y002536D01*
X004764Y002408D01*
X004695Y002241D01*
X004695Y002059D01*
X004764Y001892D01*
X004892Y001764D01*
X005059Y001695D01*
X005241Y001695D01*
X005408Y001764D01*
X005536Y001892D01*
X005605Y002059D01*
X005605Y002241D01*
X005536Y002408D01*
X005408Y002536D01*
X005528Y002416D02*
X005772Y002416D01*
X005727Y002317D02*
X005573Y002317D01*
X005605Y002219D02*
X005695Y002219D01*
X005695Y002120D02*
X005605Y002120D01*
X005589Y002022D02*
X005711Y002022D01*
X005752Y001923D02*
X005548Y001923D01*
X005468Y001825D02*
X005832Y001825D01*
X005985Y001726D02*
X005315Y001726D01*
X005241Y001605D02*
X005059Y001605D01*
X004892Y001536D01*
X004764Y001408D01*
X004695Y001241D01*
X004695Y001059D01*
X004764Y000892D01*
X004892Y000764D01*
X005059Y000695D01*
X005241Y000695D01*
X005408Y000764D01*
X005536Y000892D01*
X005605Y001059D01*
X005605Y001241D01*
X005536Y001408D01*
X005408Y001536D01*
X005241Y001605D01*
X005414Y001529D02*
X005886Y001529D01*
X005787Y001431D02*
X005513Y001431D01*
X005567Y001332D02*
X005733Y001332D01*
X005695Y001234D02*
X005605Y001234D01*
X005605Y001135D02*
X005695Y001135D01*
X005705Y001037D02*
X005595Y001037D01*
X005555Y000938D02*
X005745Y000938D01*
X005817Y000840D02*
X005483Y000840D01*
X005352Y000741D02*
X005948Y000741D01*
X004948Y000741D02*
X004352Y000741D01*
X004408Y000764D02*
X004536Y000892D01*
X004605Y001059D01*
X004605Y001241D01*
X004536Y001408D01*
X004408Y001536D01*
X004241Y001605D01*
X004059Y001605D01*
X003892Y001536D01*
X003764Y001408D01*
X003695Y001241D01*
X003695Y001059D01*
X003764Y000892D01*
X003892Y000764D01*
X004059Y000695D01*
X004241Y000695D01*
X004408Y000764D01*
X004483Y000840D02*
X004817Y000840D01*
X004745Y000938D02*
X004555Y000938D01*
X004595Y001037D02*
X004705Y001037D01*
X004695Y001135D02*
X004605Y001135D01*
X004605Y001234D02*
X004695Y001234D01*
X004733Y001332D02*
X004567Y001332D01*
X004513Y001431D02*
X004787Y001431D01*
X004886Y001529D02*
X004414Y001529D01*
X004315Y001726D02*
X004985Y001726D01*
X004832Y001825D02*
X004468Y001825D01*
X004408Y001764D02*
X004536Y001892D01*
X004605Y002059D01*
X004605Y002241D01*
X004536Y002408D01*
X004408Y002536D01*
X004241Y002605D01*
X004059Y002605D01*
X003892Y002536D01*
X003764Y002408D01*
X003695Y002241D01*
X003695Y002059D01*
X003764Y001892D01*
X003892Y001764D01*
X004059Y001695D01*
X004241Y001695D01*
X004408Y001764D01*
X004548Y001923D02*
X004752Y001923D01*
X004711Y002022D02*
X004589Y002022D01*
X004605Y002120D02*
X004695Y002120D01*
X004695Y002219D02*
X004605Y002219D01*
X004573Y002317D02*
X004727Y002317D01*
X004772Y002416D02*
X004528Y002416D01*
X004429Y002514D02*
X004871Y002514D01*
X003871Y002514D02*
X003429Y002514D01*
X003408Y002536D02*
X003241Y002605D01*
X003059Y002605D01*
X002892Y002536D01*
X002764Y002408D01*
X002695Y002241D01*
X002695Y002059D01*
X002764Y001892D01*
X002892Y001764D01*
X003059Y001695D01*
X003241Y001695D01*
X003408Y001764D01*
X003536Y001892D01*
X003605Y002059D01*
X003605Y002241D01*
X003536Y002408D01*
X003408Y002536D01*
X003528Y002416D02*
X003772Y002416D01*
X003727Y002317D02*
X003573Y002317D01*
X003605Y002219D02*
X003695Y002219D01*
X003695Y002120D02*
X003605Y002120D01*
X003589Y002022D02*
X003711Y002022D01*
X003752Y001923D02*
X003548Y001923D01*
X003468Y001825D02*
X003832Y001825D01*
X003985Y001726D02*
X003315Y001726D01*
X003241Y001605D02*
X003059Y001605D01*
X002892Y001536D01*
X002764Y001408D01*
X002695Y001241D01*
X002695Y001059D01*
X002764Y000892D01*
X002892Y000764D01*
X003059Y000695D01*
X003241Y000695D01*
X003408Y000764D01*
X003536Y000892D01*
X003605Y001059D01*
X003605Y001241D01*
X003536Y001408D01*
X003408Y001536D01*
X003241Y001605D01*
X003414Y001529D02*
X003886Y001529D01*
X003787Y001431D02*
X003513Y001431D01*
X003567Y001332D02*
X003733Y001332D01*
X003695Y001234D02*
X003605Y001234D01*
X003605Y001135D02*
X003695Y001135D01*
X003705Y001037D02*
X003595Y001037D01*
X003555Y000938D02*
X003745Y000938D01*
X003817Y000840D02*
X003483Y000840D01*
X003352Y000741D02*
X003948Y000741D01*
X002948Y000741D02*
X002352Y000741D01*
X002483Y000840D02*
X002817Y000840D01*
X002745Y000938D02*
X002555Y000938D01*
X002595Y001037D02*
X002705Y001037D01*
X002695Y001135D02*
X002605Y001135D01*
X002605Y001234D02*
X002695Y001234D01*
X002733Y001332D02*
X002567Y001332D01*
X002513Y001431D02*
X002787Y001431D01*
X002886Y001529D02*
X002414Y001529D01*
X002315Y001726D02*
X002985Y001726D01*
X002832Y001825D02*
X002468Y001825D01*
X002548Y001923D02*
X002752Y001923D01*
X002711Y002022D02*
X002589Y002022D01*
X002605Y002120D02*
X002695Y002120D01*
X002695Y002219D02*
X002605Y002219D01*
X002573Y002317D02*
X002727Y002317D01*
X002772Y002416D02*
X002528Y002416D01*
X002429Y002514D02*
X002871Y002514D01*
X000600Y002711D02*
X009940Y002711D01*
X010013Y002810D02*
X000600Y002810D01*
X000600Y002908D02*
X010111Y002908D01*
X010210Y003007D02*
X000600Y003007D01*
X000600Y003105D02*
X010308Y003105D01*
X011429Y002514D02*
X011871Y002514D01*
X011892Y002536D02*
X011764Y002408D01*
X011695Y002241D01*
X011695Y002059D01*
X011764Y001892D01*
X011892Y001764D01*
X012059Y001695D01*
X012241Y001695D01*
X012408Y001764D01*
X012536Y001892D01*
X012605Y002059D01*
X012605Y002241D01*
X012536Y002408D01*
X012408Y002536D01*
X012241Y002605D01*
X012059Y002605D01*
X011892Y002536D01*
X011772Y002416D02*
X011528Y002416D01*
X011573Y002317D02*
X011727Y002317D01*
X011695Y002219D02*
X011605Y002219D01*
X011605Y002120D02*
X011695Y002120D01*
X011711Y002022D02*
X011589Y002022D01*
X011548Y001923D02*
X011752Y001923D01*
X011832Y001825D02*
X011468Y001825D01*
X011315Y001726D02*
X011985Y001726D01*
X012100Y001529D02*
X012200Y001529D01*
X012200Y001431D02*
X012100Y001431D01*
X012100Y001332D02*
X012200Y001332D01*
X012200Y001234D02*
X012100Y001234D01*
X012100Y001135D02*
X011605Y001135D01*
X011605Y001234D02*
X011682Y001234D01*
X011687Y001037D02*
X011595Y001037D01*
X011555Y000938D02*
X011725Y000938D01*
X011789Y000840D02*
X011483Y000840D01*
X011352Y000741D02*
X011906Y000741D01*
X012100Y000741D02*
X012200Y000741D01*
X012200Y000677D02*
X012261Y000687D01*
X012332Y000710D01*
X012399Y000744D01*
X012459Y000788D01*
X012512Y000841D01*
X012556Y000901D01*
X012590Y000968D01*
X012613Y001039D01*
X012623Y001100D01*
X012200Y001100D01*
X012200Y000677D01*
X012200Y000840D02*
X012100Y000840D01*
X012100Y000938D02*
X012200Y000938D01*
X012200Y001037D02*
X012100Y001037D01*
X012200Y001135D02*
X013100Y001135D01*
X013100Y001037D02*
X013200Y001037D01*
X013200Y000938D02*
X013100Y000938D01*
X013100Y000840D02*
X013200Y000840D01*
X013200Y000741D02*
X013100Y000741D01*
X012906Y000741D02*
X012394Y000741D01*
X012511Y000840D02*
X012789Y000840D01*
X012725Y000938D02*
X012575Y000938D01*
X012613Y001037D02*
X012687Y001037D01*
X012687Y001261D02*
X012710Y001332D01*
X012767Y001431D02*
X012533Y001431D01*
X012436Y001529D02*
X012864Y001529D01*
X012985Y001726D02*
X012315Y001726D01*
X012468Y001825D02*
X012832Y001825D01*
X012752Y001923D02*
X012548Y001923D01*
X012589Y002022D02*
X012711Y002022D01*
X012695Y002120D02*
X012605Y002120D01*
X012605Y002219D02*
X012695Y002219D01*
X012727Y002317D02*
X012573Y002317D01*
X012528Y002416D02*
X012772Y002416D01*
X012871Y002514D02*
X012429Y002514D01*
X013573Y002317D02*
X017070Y002317D01*
X017070Y002219D02*
X013605Y002219D01*
X013605Y002120D02*
X017070Y002120D01*
X017070Y002022D02*
X013589Y002022D01*
X013548Y001923D02*
X017070Y001923D01*
X017070Y001825D02*
X013468Y001825D01*
X013436Y001529D02*
X017070Y001529D01*
X017070Y001431D02*
X013533Y001431D01*
X011864Y001529D02*
X011414Y001529D01*
X008985Y001726D02*
X008315Y001726D01*
X008468Y001825D02*
X008832Y001825D01*
X008752Y001923D02*
X008548Y001923D01*
X008589Y002022D02*
X008711Y002022D01*
X008695Y002120D02*
X008605Y002120D01*
X008605Y002219D02*
X008695Y002219D01*
X008727Y002317D02*
X008573Y002317D01*
X008528Y002416D02*
X008772Y002416D01*
X008871Y002514D02*
X008429Y002514D01*
X008414Y001529D02*
X008886Y001529D01*
X008787Y001431D02*
X008513Y001431D01*
X008567Y001332D02*
X008733Y001332D01*
X008695Y001234D02*
X008605Y001234D01*
X008605Y001135D02*
X008695Y001135D01*
X008705Y001037D02*
X008595Y001037D01*
X008555Y000938D02*
X008745Y000938D01*
X008817Y000840D02*
X008483Y000840D01*
X008352Y000741D02*
X008948Y000741D01*
X013992Y003105D02*
X014287Y003105D01*
X014245Y003204D02*
X000600Y003204D01*
X000600Y003302D02*
X014220Y003302D01*
X014090Y003007D02*
X014385Y003007D01*
X014189Y002908D02*
X015361Y002908D01*
X015440Y003007D02*
X014915Y003007D01*
X015013Y003105D02*
X015387Y003105D01*
X015288Y003204D02*
X015055Y003204D01*
X015080Y003302D02*
X015246Y003302D01*
X015220Y003401D02*
X015080Y003401D01*
X015080Y003499D02*
X015220Y003499D01*
X015220Y003598D02*
X015080Y003598D01*
X015080Y003696D02*
X015220Y003696D01*
X015220Y003795D02*
X015080Y003795D01*
X015080Y003893D02*
X015220Y003893D01*
X015220Y003992D02*
X015080Y003992D01*
X015057Y004090D02*
X015220Y004090D01*
X015242Y004189D02*
X015017Y004189D01*
X014921Y004287D02*
X015283Y004287D01*
X015377Y004386D02*
X008082Y004386D01*
X007994Y004287D02*
X014379Y004287D01*
X014283Y004189D02*
X007842Y004189D01*
X007628Y005469D02*
X014446Y005469D01*
X014324Y005568D02*
X007529Y005568D01*
X006613Y005962D02*
X008664Y005962D01*
X008668Y005950D02*
X008705Y005877D01*
X008753Y005811D01*
X008811Y005753D01*
X008877Y005705D01*
X008950Y005668D01*
X009028Y005643D01*
X009109Y005630D01*
X009111Y005630D01*
X009111Y006111D01*
X009189Y006111D01*
X009189Y006189D01*
X009111Y006189D01*
X009111Y006111D01*
X008630Y006111D01*
X008630Y006109D01*
X008643Y006028D01*
X008668Y005950D01*
X008716Y005863D02*
X006570Y005863D01*
X006574Y005867D02*
X006650Y006051D01*
X006650Y006249D01*
X006574Y006433D01*
X006433Y006574D01*
X006249Y006650D01*
X006051Y006650D01*
X005867Y006574D01*
X005726Y006433D01*
X005650Y006249D01*
X005650Y006051D01*
X005726Y005867D01*
X005867Y005726D01*
X006051Y005650D01*
X006249Y005650D01*
X006433Y005726D01*
X006574Y005867D01*
X006472Y005765D02*
X008800Y005765D01*
X008957Y005666D02*
X006288Y005666D01*
X006012Y005666D02*
X004843Y005666D01*
X004850Y005668D02*
X004923Y005705D01*
X004989Y005753D01*
X005047Y005811D01*
X005095Y005877D01*
X005132Y005950D01*
X005157Y006028D01*
X005170Y006109D01*
X005170Y006111D01*
X004689Y006111D01*
X004689Y006189D01*
X004611Y006189D01*
X004611Y006111D01*
X004689Y006111D01*
X004689Y005630D01*
X004691Y005630D01*
X004772Y005643D01*
X004850Y005668D01*
X004689Y005666D02*
X004611Y005666D01*
X004611Y005630D02*
X004611Y006111D01*
X004130Y006111D01*
X004130Y006109D01*
X004143Y006028D01*
X004168Y005950D01*
X004205Y005877D01*
X004253Y005811D01*
X004311Y005753D01*
X004377Y005705D01*
X004450Y005668D01*
X004528Y005643D01*
X004609Y005630D01*
X004611Y005630D01*
X004611Y005765D02*
X004689Y005765D01*
X004689Y005863D02*
X004611Y005863D01*
X004611Y005962D02*
X004689Y005962D01*
X004689Y006060D02*
X004611Y006060D01*
X004611Y006159D02*
X002150Y006159D01*
X002147Y006257D02*
X004140Y006257D01*
X004171Y006356D02*
X002106Y006356D01*
X002053Y006454D02*
X004228Y006454D01*
X004319Y006553D02*
X001955Y006553D01*
X002150Y006060D02*
X004138Y006060D01*
X004164Y005962D02*
X002113Y005962D01*
X002070Y005863D02*
X004216Y005863D01*
X004300Y005765D02*
X001972Y005765D01*
X001788Y005666D02*
X004457Y005666D01*
X005000Y005765D02*
X005828Y005765D01*
X005730Y005863D02*
X005084Y005863D01*
X005136Y005962D02*
X005687Y005962D01*
X005650Y006060D02*
X005162Y006060D01*
X005160Y006257D02*
X005653Y006257D01*
X005650Y006159D02*
X004689Y006159D01*
X004689Y006257D02*
X004611Y006257D01*
X004611Y006356D02*
X004689Y006356D01*
X004689Y006454D02*
X004611Y006454D01*
X004611Y006553D02*
X004689Y006553D01*
X004981Y006553D02*
X005845Y006553D01*
X005747Y006454D02*
X005072Y006454D01*
X005129Y006356D02*
X005694Y006356D01*
X006455Y006553D02*
X008819Y006553D01*
X008728Y006454D02*
X006553Y006454D01*
X006606Y006356D02*
X008671Y006356D01*
X008640Y006257D02*
X006647Y006257D01*
X006650Y006159D02*
X009111Y006159D01*
X009189Y006159D02*
X014220Y006159D01*
X014220Y006257D02*
X009660Y006257D01*
X009629Y006356D02*
X014220Y006356D01*
X014220Y006454D02*
X009572Y006454D01*
X009481Y006553D02*
X014227Y006553D01*
X014220Y006060D02*
X009662Y006060D01*
X009657Y006028D02*
X009670Y006109D01*
X009670Y006111D01*
X009189Y006111D01*
X009189Y005630D01*
X009191Y005630D01*
X009272Y005643D01*
X009350Y005668D01*
X009423Y005705D01*
X009489Y005753D01*
X009547Y005811D01*
X009595Y005877D01*
X009632Y005950D01*
X009657Y006028D01*
X009636Y005962D02*
X014220Y005962D01*
X014220Y005863D02*
X009584Y005863D01*
X009500Y005765D02*
X014220Y005765D01*
X014261Y005666D02*
X009343Y005666D01*
X009189Y005666D02*
X009111Y005666D01*
X009111Y005765D02*
X009189Y005765D01*
X009189Y005863D02*
X009111Y005863D01*
X009111Y005962D02*
X009189Y005962D01*
X009189Y006060D02*
X009111Y006060D01*
X009111Y006257D02*
X009189Y006257D01*
X009189Y006356D02*
X009111Y006356D01*
X009111Y006454D02*
X009189Y006454D01*
X009189Y006553D02*
X009111Y006553D01*
X008638Y006060D02*
X006650Y006060D01*
X007867Y008226D02*
X008051Y008150D01*
X008249Y008150D01*
X008433Y008226D01*
X008574Y008367D01*
X008650Y008551D01*
X008650Y008749D01*
X008574Y008933D01*
X008433Y009074D01*
X008268Y009142D01*
X008272Y009143D01*
X008350Y009168D01*
X008423Y009205D01*
X008489Y009253D01*
X008547Y009311D01*
X008595Y009377D01*
X008632Y009450D01*
X008657Y009528D01*
X008670Y009609D01*
X008670Y009620D01*
X008180Y009620D01*
X008180Y009680D01*
X008120Y009680D01*
X008120Y010170D01*
X008109Y010170D01*
X008028Y010157D01*
X007950Y010132D01*
X007877Y010095D01*
X007811Y010047D01*
X007753Y009989D01*
X007705Y009923D01*
X007668Y009850D01*
X007643Y009772D01*
X007630Y009691D01*
X007630Y009680D01*
X008120Y009680D01*
X008120Y009620D01*
X007630Y009620D01*
X007630Y009609D01*
X007643Y009528D01*
X007668Y009450D01*
X007705Y009377D01*
X007753Y009311D01*
X007811Y009253D01*
X007877Y009205D01*
X007950Y009168D01*
X008028Y009143D01*
X008032Y009142D01*
X007867Y009074D01*
X007726Y008933D01*
X007650Y008749D01*
X007650Y008551D01*
X007726Y008367D01*
X007867Y008226D01*
X007866Y008227D02*
X001934Y008227D01*
X001933Y008226D02*
X002074Y008367D01*
X002150Y008551D01*
X002150Y008749D01*
X002074Y008933D01*
X001933Y009074D01*
X001768Y009142D01*
X001772Y009143D01*
X001850Y009168D01*
X001923Y009205D01*
X001989Y009253D01*
X002047Y009311D01*
X002095Y009377D01*
X002132Y009450D01*
X002157Y009528D01*
X002170Y009609D01*
X002170Y009620D01*
X001680Y009620D01*
X001680Y009680D01*
X001620Y009680D01*
X001620Y010170D01*
X001609Y010170D01*
X001528Y010157D01*
X001450Y010132D01*
X001377Y010095D01*
X001311Y010047D01*
X001253Y009989D01*
X001205Y009923D01*
X001168Y009850D01*
X001143Y009772D01*
X001130Y009691D01*
X001130Y009680D01*
X001620Y009680D01*
X001620Y009620D01*
X001130Y009620D01*
X001130Y009609D01*
X001143Y009528D01*
X001168Y009450D01*
X001205Y009377D01*
X001253Y009311D01*
X001311Y009253D01*
X001377Y009205D01*
X001450Y009168D01*
X001528Y009143D01*
X001532Y009142D01*
X001367Y009074D01*
X001226Y008933D01*
X001150Y008749D01*
X001150Y008551D01*
X001226Y008367D01*
X001367Y008226D01*
X001551Y008150D01*
X001749Y008150D01*
X001933Y008226D01*
X002033Y008326D02*
X007767Y008326D01*
X007702Y008424D02*
X002098Y008424D01*
X002138Y008523D02*
X007662Y008523D01*
X007650Y008621D02*
X002150Y008621D01*
X002150Y008720D02*
X007650Y008720D01*
X007678Y008818D02*
X002122Y008818D01*
X002081Y008917D02*
X005078Y008917D01*
X005150Y008917D02*
X005250Y008917D01*
X005250Y008902D02*
X005305Y008911D01*
X005373Y008933D01*
X005436Y008965D01*
X005493Y009007D01*
X005543Y009057D01*
X005585Y009114D01*
X005617Y009177D01*
X005639Y009245D01*
X005650Y009315D01*
X005650Y009600D01*
X005250Y009600D01*
X005250Y008902D01*
X005322Y008917D02*
X007719Y008917D01*
X007808Y009015D02*
X005501Y009015D01*
X005584Y009114D02*
X007962Y009114D01*
X007868Y009212D02*
X005628Y009212D01*
X005649Y009311D02*
X007754Y009311D01*
X007689Y009409D02*
X005650Y009409D01*
X005650Y009508D02*
X007650Y009508D01*
X007630Y009606D02*
X005250Y009606D01*
X005250Y009508D02*
X005150Y009508D01*
X005150Y009606D02*
X004530Y009606D01*
X004530Y009508D02*
X004750Y009508D01*
X004750Y009409D02*
X004530Y009409D01*
X004530Y009311D02*
X004751Y009311D01*
X004772Y009212D02*
X004508Y009212D01*
X004467Y009114D02*
X004816Y009114D01*
X004899Y009015D02*
X004373Y009015D01*
X003827Y009015D02*
X001992Y009015D01*
X001838Y009114D02*
X003733Y009114D01*
X003692Y009212D02*
X001932Y009212D01*
X002046Y009311D02*
X003670Y009311D01*
X003670Y009409D02*
X002111Y009409D01*
X002150Y009508D02*
X003670Y009508D01*
X003670Y009606D02*
X002170Y009606D01*
X002170Y009680D02*
X002170Y009691D01*
X002157Y009772D01*
X002132Y009850D01*
X002095Y009923D01*
X002047Y009989D01*
X001989Y010047D01*
X001923Y010095D01*
X001850Y010132D01*
X001772Y010157D01*
X001691Y010170D01*
X001680Y010170D01*
X001680Y009680D01*
X002170Y009680D01*
X002168Y009705D02*
X003670Y009705D01*
X003670Y009803D02*
X002147Y009803D01*
X002105Y009902D02*
X003670Y009902D01*
X003670Y010000D02*
X002035Y010000D01*
X001915Y010099D02*
X003696Y010099D01*
X004504Y010099D02*
X004775Y010099D01*
X004752Y010000D02*
X004530Y010000D01*
X004530Y009902D02*
X004750Y009902D01*
X004750Y009803D02*
X004530Y009803D01*
X004530Y009705D02*
X004750Y009705D01*
X005150Y009409D02*
X005250Y009409D01*
X005250Y009311D02*
X005150Y009311D01*
X005150Y009212D02*
X005250Y009212D01*
X005250Y009114D02*
X005150Y009114D01*
X005150Y009015D02*
X005250Y009015D01*
X005650Y009705D02*
X007632Y009705D01*
X007653Y009803D02*
X005650Y009803D01*
X005650Y009902D02*
X007695Y009902D01*
X007765Y010000D02*
X005648Y010000D01*
X005625Y010099D02*
X007885Y010099D01*
X008120Y010099D02*
X008180Y010099D01*
X008180Y010170D02*
X008180Y009680D01*
X008670Y009680D01*
X008670Y009691D01*
X008657Y009772D01*
X008632Y009850D01*
X008595Y009923D01*
X008547Y009989D01*
X008489Y010047D01*
X008423Y010095D01*
X008350Y010132D01*
X008272Y010157D01*
X008191Y010170D01*
X008180Y010170D01*
X008180Y010000D02*
X008120Y010000D01*
X008120Y009902D02*
X008180Y009902D01*
X008180Y009803D02*
X008120Y009803D01*
X008120Y009705D02*
X008180Y009705D01*
X008535Y010000D02*
X010170Y010000D01*
X010170Y009902D02*
X008605Y009902D01*
X008647Y009803D02*
X010170Y009803D01*
X010170Y009705D02*
X008668Y009705D01*
X008670Y009606D02*
X010170Y009606D01*
X010170Y009508D02*
X008650Y009508D01*
X008611Y009409D02*
X010170Y009409D01*
X010170Y009311D02*
X008546Y009311D01*
X008432Y009212D02*
X010192Y009212D01*
X010233Y009114D02*
X008338Y009114D01*
X008492Y009015D02*
X010327Y009015D01*
X010873Y009015D02*
X011399Y009015D01*
X011407Y009007D02*
X011464Y008965D01*
X011527Y008933D01*
X011595Y008911D01*
X011650Y008902D01*
X011650Y009600D01*
X011250Y009600D01*
X011250Y009315D01*
X011261Y009245D01*
X011283Y009177D01*
X011315Y009114D01*
X011357Y009057D01*
X011407Y009007D01*
X011316Y009114D02*
X010967Y009114D01*
X011008Y009212D02*
X011272Y009212D01*
X011251Y009311D02*
X011030Y009311D01*
X011030Y009409D02*
X011250Y009409D01*
X011250Y009508D02*
X011030Y009508D01*
X011030Y009606D02*
X011650Y009606D01*
X011650Y009508D02*
X011750Y009508D01*
X011750Y009600D02*
X011750Y008902D01*
X011805Y008911D01*
X011873Y008933D01*
X011936Y008965D01*
X011993Y009007D01*
X012043Y009057D01*
X012085Y009114D01*
X012117Y009177D01*
X012139Y009245D01*
X012150Y009315D01*
X012150Y009600D01*
X011750Y009600D01*
X011750Y009606D02*
X017070Y009606D01*
X017070Y009508D02*
X012150Y009508D01*
X012150Y009409D02*
X015401Y009409D01*
X015406Y009415D02*
X015285Y009294D01*
X015220Y009136D01*
X015220Y008364D01*
X015285Y008206D01*
X015406Y008085D01*
X015564Y008020D01*
X015736Y008020D01*
X015894Y008085D01*
X016015Y008206D01*
X016080Y008364D01*
X016080Y009136D01*
X016015Y009294D01*
X015894Y009415D01*
X015736Y009480D01*
X015564Y009480D01*
X015406Y009415D01*
X015302Y009311D02*
X014898Y009311D01*
X014894Y009315D02*
X014736Y009380D01*
X014564Y009380D01*
X014406Y009315D01*
X014285Y009194D01*
X014220Y009036D01*
X014220Y008264D01*
X014285Y008106D01*
X014406Y007985D01*
X014564Y007920D01*
X014736Y007920D01*
X014894Y007985D01*
X015015Y008106D01*
X015080Y008264D01*
X015080Y009036D01*
X015015Y009194D01*
X014894Y009315D01*
X014996Y009212D02*
X015252Y009212D01*
X015220Y009114D02*
X015048Y009114D01*
X015080Y009015D02*
X015220Y009015D01*
X015220Y008917D02*
X015080Y008917D01*
X015080Y008818D02*
X015220Y008818D01*
X015220Y008720D02*
X015080Y008720D01*
X015080Y008621D02*
X015220Y008621D01*
X015220Y008523D02*
X015080Y008523D01*
X015080Y008424D02*
X015220Y008424D01*
X015236Y008326D02*
X015080Y008326D01*
X015064Y008227D02*
X015277Y008227D01*
X015363Y008129D02*
X015024Y008129D01*
X014938Y008030D02*
X015540Y008030D01*
X015760Y008030D02*
X016362Y008030D01*
X016276Y008129D02*
X015937Y008129D01*
X016023Y008227D02*
X016236Y008227D01*
X016220Y008326D02*
X016064Y008326D01*
X016080Y008424D02*
X016220Y008424D01*
X016220Y008523D02*
X016080Y008523D01*
X016080Y008621D02*
X016220Y008621D01*
X016220Y008720D02*
X016080Y008720D01*
X016080Y008818D02*
X016220Y008818D01*
X016220Y008917D02*
X016080Y008917D01*
X016080Y009015D02*
X016220Y009015D01*
X016252Y009114D02*
X016080Y009114D01*
X016048Y009212D02*
X016304Y009212D01*
X016402Y009311D02*
X015998Y009311D01*
X015899Y009409D02*
X017070Y009409D01*
X017070Y009311D02*
X016898Y009311D01*
X016996Y009212D02*
X017070Y009212D01*
X017070Y009114D02*
X017048Y009114D01*
X017070Y009705D02*
X012150Y009705D01*
X012150Y009803D02*
X017070Y009803D01*
X017070Y009902D02*
X012150Y009902D01*
X012148Y010000D02*
X017070Y010000D01*
X017070Y010099D02*
X012125Y010099D01*
X011275Y010099D02*
X011004Y010099D01*
X011030Y010000D02*
X011252Y010000D01*
X011250Y009902D02*
X011030Y009902D01*
X011030Y009803D02*
X011250Y009803D01*
X011250Y009705D02*
X011030Y009705D01*
X011650Y009409D02*
X011750Y009409D01*
X011750Y009311D02*
X011650Y009311D01*
X011650Y009212D02*
X011750Y009212D01*
X011750Y009114D02*
X011650Y009114D01*
X011650Y009015D02*
X011750Y009015D01*
X011750Y008917D02*
X011650Y008917D01*
X011578Y008917D02*
X008581Y008917D01*
X008622Y008818D02*
X014220Y008818D01*
X014220Y008720D02*
X008650Y008720D01*
X008650Y008621D02*
X014220Y008621D01*
X014220Y008523D02*
X008638Y008523D01*
X008598Y008424D02*
X014220Y008424D01*
X014220Y008326D02*
X008533Y008326D01*
X008434Y008227D02*
X014236Y008227D01*
X014276Y008129D02*
X000600Y008129D01*
X000600Y008227D02*
X001366Y008227D01*
X001267Y008326D02*
X000600Y008326D01*
X000600Y008424D02*
X001202Y008424D01*
X001162Y008523D02*
X000600Y008523D01*
X000600Y008621D02*
X001150Y008621D01*
X001150Y008720D02*
X000600Y008720D01*
X000600Y008818D02*
X001178Y008818D01*
X001219Y008917D02*
X000600Y008917D01*
X000600Y009015D02*
X001308Y009015D01*
X001462Y009114D02*
X000600Y009114D01*
X000600Y009212D02*
X001368Y009212D01*
X001254Y009311D02*
X000600Y009311D01*
X000600Y009409D02*
X001189Y009409D01*
X001150Y009508D02*
X000600Y009508D01*
X000600Y009606D02*
X001130Y009606D01*
X001132Y009705D02*
X000600Y009705D01*
X000600Y009803D02*
X001153Y009803D01*
X001195Y009902D02*
X000600Y009902D01*
X000600Y010000D02*
X001265Y010000D01*
X001385Y010099D02*
X000600Y010099D01*
X001620Y010099D02*
X001680Y010099D01*
X001680Y010000D02*
X001620Y010000D01*
X001620Y009902D02*
X001680Y009902D01*
X001680Y009803D02*
X001620Y009803D01*
X001620Y009705D02*
X001680Y009705D01*
X000600Y008030D02*
X014362Y008030D01*
X014537Y007932D02*
X000600Y007932D01*
X000600Y007833D02*
X017070Y007833D01*
X017070Y007735D02*
X000600Y007735D01*
X000600Y007636D02*
X017070Y007636D01*
X017070Y007538D02*
X000600Y007538D01*
X000600Y007439D02*
X017070Y007439D01*
X017070Y007341D02*
X000600Y007341D01*
X000600Y007242D02*
X017070Y007242D01*
X017070Y007144D02*
X000600Y007144D01*
X000600Y007045D02*
X017070Y007045D01*
X017070Y006947D02*
X015816Y006947D01*
X015960Y006848D02*
X016487Y006848D01*
X016341Y006750D02*
X016033Y006750D01*
X016074Y006651D02*
X016268Y006651D01*
X016227Y006553D02*
X016080Y006553D01*
X016080Y006454D02*
X016220Y006454D01*
X016220Y006356D02*
X016080Y006356D01*
X016080Y006257D02*
X016220Y006257D01*
X016220Y006159D02*
X016080Y006159D01*
X016080Y006060D02*
X016220Y006060D01*
X016220Y005962D02*
X016080Y005962D01*
X016079Y005863D02*
X016220Y005863D01*
X016220Y005765D02*
X016039Y005765D01*
X015974Y005666D02*
X016261Y005666D01*
X016324Y005568D02*
X015850Y005568D01*
X017032Y006651D02*
X017070Y006651D01*
X017070Y006750D02*
X016959Y006750D01*
X017070Y006848D02*
X016813Y006848D01*
X015484Y006947D02*
X000600Y006947D01*
X008415Y010099D02*
X010196Y010099D01*
X012001Y009015D02*
X014220Y009015D01*
X014220Y008917D02*
X011822Y008917D01*
X012084Y009114D02*
X014252Y009114D01*
X014304Y009212D02*
X012128Y009212D01*
X012149Y009311D02*
X014402Y009311D01*
X014763Y007932D02*
X016537Y007932D01*
X016763Y007932D02*
X017070Y007932D01*
X017070Y008030D02*
X016938Y008030D01*
X017024Y008129D02*
X017070Y008129D01*
X017064Y008227D02*
X017070Y008227D01*
X017070Y004287D02*
X016921Y004287D01*
X017017Y004189D02*
X017070Y004189D01*
X017057Y004090D02*
X017070Y004090D01*
X017055Y003204D02*
X017070Y003204D01*
X017070Y003105D02*
X017013Y003105D01*
X017070Y003007D02*
X016915Y003007D01*
D14*
X015650Y002900D02*
X015650Y003750D01*
X015650Y002900D02*
X015400Y002650D01*
X014150Y002650D01*
X013900Y002900D01*
X010400Y002900D01*
X010150Y002650D01*
X010150Y002150D01*
X007650Y004650D02*
X007650Y005150D01*
X007400Y005400D01*
X003400Y005400D01*
X002650Y004650D01*
M02*
