G75*
G70*
%OFA0B0*%
%FSLAX24Y24*%
%IPPOS*%
%LPD*%
%AMOC8*
5,1,8,0,0,1.08239X$1,22.5*
%
%ADD10C,0.0730*%
%ADD11C,0.0820*%
%ADD12R,0.0395X0.0552*%
%ADD13R,0.0552X0.0395*%
%ADD14C,0.0680*%
D10*
X001150Y001150D03*
X002150Y001150D03*
X003150Y001150D03*
X004150Y001150D03*
X005150Y001150D03*
X006150Y001150D03*
X007150Y001150D03*
X008150Y001150D03*
X009150Y001150D03*
X010150Y001150D03*
X011150Y001150D03*
X012150Y001150D03*
X013150Y001150D03*
X013150Y002150D03*
X012150Y002150D03*
X011150Y002150D03*
X010150Y002150D03*
X009150Y002150D03*
X008150Y002150D03*
X007150Y002150D03*
X006150Y002150D03*
X005150Y002150D03*
X004150Y002150D03*
X003150Y002150D03*
X002150Y002150D03*
X001150Y002150D03*
D11*
X002150Y003900D03*
X001650Y004650D03*
X002650Y004650D03*
X001650Y006150D03*
X004650Y006150D03*
X006150Y006150D03*
X006650Y004650D03*
X007650Y004650D03*
X007150Y003900D03*
X009150Y006150D03*
X008150Y008650D03*
X008150Y009650D03*
X001650Y009650D03*
X001650Y008650D03*
D12*
X008796Y004650D03*
X009504Y004650D03*
X009504Y003900D03*
X008796Y003900D03*
X004504Y004150D03*
X003796Y004150D03*
X003796Y003150D03*
X004504Y003150D03*
X015796Y009900D03*
X016504Y009900D03*
D13*
X009900Y008254D03*
X009900Y007546D03*
X003150Y007296D03*
X003150Y008004D03*
D14*
X004100Y009350D02*
X004100Y009950D01*
X005200Y009950D02*
X005200Y009350D01*
X010600Y009350D02*
X010600Y009950D01*
X011700Y009950D02*
X011700Y009350D01*
X014650Y008950D02*
X014650Y008350D01*
X015650Y008450D02*
X015650Y009050D01*
X016650Y008950D02*
X016650Y008350D01*
X015650Y006550D02*
X015650Y005950D01*
X014650Y005850D02*
X014650Y006450D01*
X016650Y006450D02*
X016650Y005850D01*
X015650Y004050D02*
X015650Y003450D01*
X014650Y003350D02*
X014650Y003950D01*
X016650Y003950D02*
X016650Y003350D01*
M02*
